<?xml version="1.0" encoding="UTF-8" standalone="no"?><svg xmlns="http://www.w3.org/2000/svg" xmlns:xlink="http://www.w3.org/1999/xlink" clip-rule="evenodd" stroke-miterlimit="10" viewBox="0 0 1024 768"><desc>SVG generated by Keynote</desc><defs><radialGradient id="gradSh1.3" cx="0.0" cy="0.0" r="100.0" fx="0.0" fy="0.0" gradientUnits="userSpaceOnUse" gradientTransform="matrix(5.13, -3.85, -3.85, -5.13, 512.0, 384.0)"><stop offset="0.00000" stop-color="#565A5F"></stop><stop offset="0.00806" stop-color="#565A5E"></stop><stop offset="0.38196" stop-color="#3F4347"></stop><stop offset="0.38930" stop-color="#3F4346"></stop><stop offset="0.44208" stop-color="#3C3F43"></stop><stop offset="0.44941" stop-color="#3B3F43"></stop><stop offset="0.50073" stop-color="#383C3F"></stop><stop offset="0.50880" stop-color="#383B3F"></stop><stop offset="0.92375" stop-color="#1F2325"></stop><stop offset="0.92522" stop-color="#1F2225"></stop><stop offset="1.00000" stop-color="#1B1E20"></stop></radialGradient></defs><g transform="matrix(1.00, 0.00, -0.00, -1.00, 0.0, 768.0)"><g><clipPath id="clip0x6080012a4da0"><path d="M 0.0 768.0 L 1024.0 768.0 L 1024.0 0.0 L 0.0 0.0 Z M 0.0 768.0 "></path></clipPath><g clip-path="url(#clip0x6080012a4da0)"><path d="M 0.0 768.0 L 1024.0 768.0 L 1024.0 0.0 L 0.0 0.0 Z M 0.0 768.0 " fill="url(#gradSh1.3)"></path></g></g><text xml:space="preserve" font-family="Helvetica-Light,Helvetica" font-size="80.0" fill="#EEEEEE" transform="matrix(1.00, 0.00, -0.00, -1.00, 318.6, 618.4)">W</text><text xml:space="preserve" font-family="Helvetica-Light,Helvetica" font-size="80.0" fill="#EEEEEE" transform="matrix(1.00, 0.00, -0.00, -1.00, 389.7, 618.4)">h</text><text xml:space="preserve" font-family="Helvetica-Light,Helvetica" font-size="80.0" fill="#EEEEEE" transform="matrix(1.00, 0.00, -0.00, -1.00, 434.2, 618.4)">o</text><text xml:space="preserve" font-family="Helvetica-Light,Helvetica" font-size="80.0" fill="#EEEEEE" transform="matrix(1.00, 0.00, -0.00, -1.00, 478.7, 618.4)"> </text><text xml:space="preserve" font-family="Helvetica-Light,Helvetica" font-size="80.0" fill="#EEEEEE" transform="matrix(1.00, 0.00, -0.00, -1.00, 500.9, 618.4)">A</text><text xml:space="preserve" font-family="Helvetica-Light,Helvetica" font-size="80.0" fill="#EEEEEE" transform="matrix(1.00, 0.00, -0.00, -1.00, 554.3, 618.4)">m</text><text xml:space="preserve" font-family="Helvetica-Light,Helvetica" font-size="80.0" fill="#EEEEEE" transform="matrix(1.00, 0.00, -0.00, -1.00, 620.9, 618.4)"> </text><text xml:space="preserve" font-family="Helvetica-Light,Helvetica" font-size="80.0" fill="#EEEEEE" transform="matrix(1.00, 0.00, -0.00, -1.00, 643.2, 618.4)">I</text><text xml:space="preserve" font-family="Helvetica-Light,Helvetica" font-size="80.0" fill="#EEEEEE" transform="matrix(1.00, 0.00, -0.00, -1.00, 665.4, 618.4)">?</text><text xml:space="preserve" font-family="Helvetica-Light,Helvetica" font-size="27.0" fill="#EEEEEE" transform="matrix(1.00, 0.00, -0.00, -1.00, 79.0, 527.7)">•</text><text xml:space="preserve" font-family="Helvetica-Light,Helvetica" font-size="36.0" fill="#EEEEEE" transform="matrix(1.00, 0.00, -0.00, -1.00, 114.0, 524.3)">N</text><text xml:space="preserve" font-family="Helvetica-Light,Helvetica" font-size="36.0" fill="#EEEEEE" transform="matrix(1.00, 0.00, -0.00, -1.00, 140.0, 524.3)">a</text><text xml:space="preserve" font-family="Helvetica-Light,Helvetica" font-size="36.0" fill="#EEEEEE" transform="matrix(1.00, 0.00, -0.00, -1.00, 160.0, 524.3)">m</text><text xml:space="preserve" font-family="Helvetica-Light,Helvetica" font-size="36.0" fill="#EEEEEE" transform="matrix(1.00, 0.00, -0.00, -1.00, 190.0, 524.3)">e</text><text xml:space="preserve" font-family="Helvetica-Light,Helvetica" font-size="36.0" fill="#EEEEEE" transform="matrix(1.00, 0.00, -0.00, -1.00, 210.0, 524.3)">:</text><text xml:space="preserve" font-family="Helvetica-Light,Helvetica" font-size="36.0" fill="#EEEEEE" transform="matrix(1.00, 0.00, -0.00, -1.00, 220.0, 524.3)"> </text><text xml:space="preserve" font-family="Helvetica-Light,Helvetica" font-size="36.0" fill="#EEEEEE" transform="matrix(1.00, 0.00, -0.00, -1.00, 230.0, 524.3)">R</text><text xml:space="preserve" font-family="Helvetica-Light,Helvetica" font-size="36.0" fill="#EEEEEE" transform="matrix(1.00, 0.00, -0.00, -1.00, 254.0, 524.3)">o</text><text xml:space="preserve" font-family="Helvetica-Light,Helvetica" font-size="36.0" fill="#EEEEEE" transform="matrix(1.00, 0.00, -0.00, -1.00, 274.1, 524.3)">d</text><text xml:space="preserve" font-family="Helvetica-Light,Helvetica" font-size="36.0" fill="#EEEEEE" transform="matrix(1.00, 0.00, -0.00, -1.00, 296.1, 524.3)">r</text><text xml:space="preserve" font-family="Helvetica-Light,Helvetica" font-size="36.0" fill="#EEEEEE" transform="matrix(1.00, 0.00, -0.00, -1.00, 308.0, 524.3)">i</text><text xml:space="preserve" font-family="Helvetica-Light,Helvetica" font-size="36.0" fill="#EEEEEE" transform="matrix(1.00, 0.00, -0.00, -1.00, 316.0, 524.3)">c</text><text xml:space="preserve" font-family="Helvetica-Light,Helvetica" font-size="36.0" fill="#EEEEEE" transform="matrix(1.00, 0.00, -0.00, -1.00, 336.0, 524.3)"> </text><text xml:space="preserve" font-family="Helvetica-Light,Helvetica" font-size="36.0" fill="#EEEEEE" transform="matrix(1.00, 0.00, -0.00, -1.00, 346.1, 524.3)">H</text><text xml:space="preserve" font-family="Helvetica-Light,Helvetica" font-size="36.0" fill="#EEEEEE" transform="matrix(1.00, 0.00, -0.00, -1.00, 372.0, 524.3)">a</text><text xml:space="preserve" font-family="Helvetica-Light,Helvetica" font-size="36.0" fill="#EEEEEE" transform="matrix(1.00, 0.00, -0.00, -1.00, 392.1, 524.3)">d</text><text xml:space="preserve" font-family="Helvetica-Light,Helvetica" font-size="36.0" fill="#EEEEEE" transform="matrix(1.00, 0.00, -0.00, -1.00, 414.1, 524.3)">d</text><text xml:space="preserve" font-family="Helvetica-Light,Helvetica" font-size="36.0" fill="#EEEEEE" transform="matrix(1.00, 0.00, -0.00, -1.00, 436.1, 524.3)">a</text><text xml:space="preserve" font-family="Helvetica-Light,Helvetica" font-size="36.0" fill="#EEEEEE" transform="matrix(1.00, 0.00, -0.00, -1.00, 456.1, 524.3)">d</text><text xml:space="preserve" font-family="Helvetica-Light,Helvetica" font-size="36.0" fill="#EEEEEE" transform="matrix(1.00, 0.00, -0.00, -1.00, 478.1, 524.3)"> </text><text xml:space="preserve" font-family="Helvetica-Light,Helvetica" font-size="27.0" fill="#EEEEEE" transform="matrix(1.00, 0.00, -0.00, -1.00, 79.0, 455.7)">•</text><text xml:space="preserve" font-family="Helvetica-Light,Helvetica" font-size="36.0" fill="#EEEEEE" transform="matrix(1.00, 0.00, -0.00, -1.00, 114.0, 452.3)">@</text><text xml:space="preserve" font-family="Helvetica-Light,Helvetica" font-size="36.0" fill="#EEEEEE" transform="matrix(1.00, 0.00, -0.00, -1.00, 142.8, 452.3)">r</text><text xml:space="preserve" font-family="Helvetica-Light,Helvetica" font-size="36.0" fill="#EEEEEE" transform="matrix(1.00, 0.00, -0.00, -1.00, 154.1, 452.3)">o</text><text xml:space="preserve" font-family="Helvetica-Light,Helvetica" font-size="36.0" fill="#EEEEEE" transform="matrix(1.00, 0.00, -0.00, -1.00, 174.2, 452.3)">d</text><text xml:space="preserve" font-family="Helvetica-Light,Helvetica" font-size="36.0" fill="#EEEEEE" transform="matrix(1.00, 0.00, -0.00, -1.00, 196.2, 452.3)">y</text><text xml:space="preserve" font-family="Helvetica-Light,Helvetica" font-size="36.0" fill="#EEEEEE" transform="matrix(1.00, 0.00, -0.00, -1.00, 214.2, 452.3)">h</text><text xml:space="preserve" font-family="Helvetica-Light,Helvetica" font-size="36.0" fill="#EEEEEE" transform="matrix(1.00, 0.00, -0.00, -1.00, 234.2, 452.3)">a</text><text xml:space="preserve" font-family="Helvetica-Light,Helvetica" font-size="36.0" fill="#EEEEEE" transform="matrix(1.00, 0.00, -0.00, -1.00, 254.2, 452.3)">d</text><text xml:space="preserve" font-family="Helvetica-Light,Helvetica" font-size="36.0" fill="#EEEEEE" transform="matrix(1.00, 0.00, -0.00, -1.00, 276.2, 452.3)">d</text><text xml:space="preserve" font-family="Helvetica-Light,Helvetica" font-size="36.0" fill="#EEEEEE" transform="matrix(1.00, 0.00, -0.00, -1.00, 298.2, 452.3)">a</text><text xml:space="preserve" font-family="Helvetica-Light,Helvetica" font-size="36.0" fill="#EEEEEE" transform="matrix(1.00, 0.00, -0.00, -1.00, 318.2, 452.3)">d</text><text xml:space="preserve" font-family="Helvetica-Light,Helvetica" font-size="36.0" fill="#EEEEEE" transform="matrix(1.00, 0.00, -0.00, -1.00, 340.2, 452.3)"> </text><text xml:space="preserve" font-family="Helvetica-Light,Helvetica" font-size="36.0" fill="#EEEEEE" transform="matrix(1.00, 0.00, -0.00, -1.00, 350.2, 452.3)">o</text><text xml:space="preserve" font-family="Helvetica-Light,Helvetica" font-size="36.0" fill="#EEEEEE" transform="matrix(1.00, 0.00, -0.00, -1.00, 370.2, 452.3)">n</text><text xml:space="preserve" font-family="Helvetica-Light,Helvetica" font-size="36.0" fill="#EEEEEE" transform="matrix(1.00, 0.00, -0.00, -1.00, 390.2, 452.3)"> </text><text xml:space="preserve" font-family="Helvetica-Light,Helvetica" font-size="36.0" fill="#EEEEEE" transform="matrix(1.00, 0.00, -0.00, -1.00, 400.2, 452.3)">t</text><text xml:space="preserve" font-family="Helvetica-Light,Helvetica" font-size="36.0" fill="#EEEEEE" transform="matrix(1.00, 0.00, -0.00, -1.00, 410.2, 452.3)">h</text><text xml:space="preserve" font-family="Helvetica-Light,Helvetica" font-size="36.0" fill="#EEEEEE" transform="matrix(1.00, 0.00, -0.00, -1.00, 430.3, 452.3)">e</text><text xml:space="preserve" font-family="Helvetica-Light,Helvetica" font-size="36.0" fill="#EEEEEE" transform="matrix(1.00, 0.00, -0.00, -1.00, 450.3, 452.3)"> </text><text xml:space="preserve" font-family="Helvetica-Light,Helvetica" font-size="36.0" fill="#EEEEEE" transform="matrix(1.00, 0.00, -0.00, -1.00, 460.3, 452.3)">w</text><text xml:space="preserve" font-family="Helvetica-Light,Helvetica" font-size="36.0" fill="#EEEEEE" transform="matrix(1.00, 0.00, -0.00, -1.00, 486.3, 452.3)">e</text><text xml:space="preserve" font-family="Helvetica-Light,Helvetica" font-size="36.0" fill="#EEEEEE" transform="matrix(1.00, 0.00, -0.00, -1.00, 506.3, 452.3)">b</text><text xml:space="preserve" font-family="Helvetica-Light,Helvetica" font-size="36.0" fill="#EEEEEE" transform="matrix(1.00, 0.00, -0.00, -1.00, 528.3, 452.3)"> </text><g><clipPath id="clip0x6080018a6660"><path d="M 113.0 447.7 L 340.2 447.7 L 340.2 451.5 L 113.0 451.5 Z M 113.0 447.7 "></path></clipPath><g clip-path="url(#clip0x6080018a6660)"><path d="M 39.0 113.4 L 265.2 113.4 " fill="none" stroke="#EEEEEE" stroke-width="1.80" transform="matrix(1.00, 0.00, 0.00, -1.00, 75.0, 563.0)"></path></g></g><text xml:space="preserve" font-family="Helvetica-Light,Helvetica" font-size="27.0" fill="#EEEEEE" transform="matrix(1.00, 0.00, -0.00, -1.00, 79.0, 383.7)">•</text><text xml:space="preserve" font-family="Helvetica-Light,Helvetica" font-size="36.0" fill="#EEEEEE" transform="matrix(1.00, 0.00, -0.00, -1.00, 114.0, 380.3)">A</text><text xml:space="preserve" font-family="Helvetica-Light,Helvetica" font-size="36.0" fill="#EEEEEE" transform="matrix(1.00, 0.00, -0.00, -1.00, 138.0, 380.3)">n</text><text xml:space="preserve" font-family="Helvetica-Light,Helvetica" font-size="36.0" fill="#EEEEEE" transform="matrix(1.00, 0.00, -0.00, -1.00, 158.0, 380.3)">g</text><text xml:space="preserve" font-family="Helvetica-Light,Helvetica" font-size="36.0" fill="#EEEEEE" transform="matrix(1.00, 0.00, -0.00, -1.00, 180.0, 380.3)">u</text><text xml:space="preserve" font-family="Helvetica-Light,Helvetica" font-size="36.0" fill="#EEEEEE" transform="matrix(1.00, 0.00, -0.00, -1.00, 200.0, 380.3)">l</text><text xml:space="preserve" font-family="Helvetica-Light,Helvetica" font-size="36.0" fill="#EEEEEE" transform="matrix(1.00, 0.00, -0.00, -1.00, 208.0, 380.3)">a</text><text xml:space="preserve" font-family="Helvetica-Light,Helvetica" font-size="36.0" fill="#EEEEEE" transform="matrix(1.00, 0.00, -0.00, -1.00, 228.0, 380.3)">r</text><text xml:space="preserve" font-family="Helvetica-Light,Helvetica" font-size="36.0" fill="#EEEEEE" transform="matrix(1.00, 0.00, -0.00, -1.00, 240.0, 380.3)">J</text><text xml:space="preserve" font-family="Helvetica-Light,Helvetica" font-size="36.0" fill="#EEEEEE" transform="matrix(1.00, 0.00, -0.00, -1.00, 258.0, 380.3)">S</text><text xml:space="preserve" font-family="Helvetica-Light,Helvetica" font-size="36.0" fill="#EEEEEE" transform="matrix(1.00, 0.00, -0.00, -1.00, 280.0, 380.3)"> </text><text xml:space="preserve" font-family="Helvetica-Light,Helvetica" font-size="36.0" fill="#EEEEEE" transform="matrix(1.00, 0.00, -0.00, -1.00, 290.0, 380.3)">c</text><text xml:space="preserve" font-family="Helvetica-Light,Helvetica" font-size="36.0" fill="#EEEEEE" transform="matrix(1.00, 0.00, -0.00, -1.00, 310.1, 380.3)">o</text><text xml:space="preserve" font-family="Helvetica-Light,Helvetica" font-size="36.0" fill="#EEEEEE" transform="matrix(1.00, 0.00, -0.00, -1.00, 330.1, 380.3)">n</text><text xml:space="preserve" font-family="Helvetica-Light,Helvetica" font-size="36.0" fill="#EEEEEE" transform="matrix(1.00, 0.00, -0.00, -1.00, 350.1, 380.3)">t</text><text xml:space="preserve" font-family="Helvetica-Light,Helvetica" font-size="36.0" fill="#EEEEEE" transform="matrix(1.00, 0.00, -0.00, -1.00, 360.1, 380.3)">r</text><text xml:space="preserve" font-family="Helvetica-Light,Helvetica" font-size="36.0" fill="#EEEEEE" transform="matrix(1.00, 0.00, -0.00, -1.00, 372.1, 380.3)">i</text><text xml:space="preserve" font-family="Helvetica-Light,Helvetica" font-size="36.0" fill="#EEEEEE" transform="matrix(1.00, 0.00, -0.00, -1.00, 380.1, 380.3)">b</text><text xml:space="preserve" font-family="Helvetica-Light,Helvetica" font-size="36.0" fill="#EEEEEE" transform="matrix(1.00, 0.00, -0.00, -1.00, 402.1, 380.3)">u</text><text xml:space="preserve" font-family="Helvetica-Light,Helvetica" font-size="36.0" fill="#EEEEEE" transform="matrix(1.00, 0.00, -0.00, -1.00, 422.1, 380.3)">t</text><text xml:space="preserve" font-family="Helvetica-Light,Helvetica" font-size="36.0" fill="#EEEEEE" transform="matrix(1.00, 0.00, -0.00, -1.00, 432.1, 380.3)">o</text><text xml:space="preserve" font-family="Helvetica-Light,Helvetica" font-size="36.0" fill="#EEEEEE" transform="matrix(1.00, 0.00, -0.00, -1.00, 452.1, 380.3)">r</text><text xml:space="preserve" font-family="Helvetica-Light,Helvetica" font-size="36.0" fill="#EEEEEE" transform="matrix(1.00, 0.00, -0.00, -1.00, 464.1, 380.3)"> </text><text xml:space="preserve" font-family="Helvetica-Light,Helvetica" font-size="27.0" fill="#EEEEEE" transform="matrix(1.00, 0.00, -0.00, -1.00, 79.0, 311.7)">•</text><text xml:space="preserve" font-family="Helvetica-Light,Helvetica" font-size="36.0" fill="#EEEEEE" transform="matrix(1.00, 0.00, -0.00, -1.00, 114.0, 308.3)">2</text><text xml:space="preserve" font-family="Helvetica-Light,Helvetica" font-size="36.0" fill="#EEEEEE" transform="matrix(1.00, 0.00, -0.00, -1.00, 134.0, 308.3)">0</text><text xml:space="preserve" font-family="Helvetica-Light,Helvetica" font-size="36.0" fill="#EEEEEE" transform="matrix(1.00, 0.00, -0.00, -1.00, 154.0, 308.3)">1</text><text xml:space="preserve" font-family="Helvetica-Light,Helvetica" font-size="36.0" fill="#EEEEEE" transform="matrix(1.00, 0.00, -0.00, -1.00, 174.0, 308.3)">4</text><text xml:space="preserve" font-family="Helvetica-Light,Helvetica" font-size="36.0" fill="#EEEEEE" transform="matrix(1.00, 0.00, -0.00, -1.00, 194.1, 308.3)"> </text><text xml:space="preserve" font-family="Helvetica-Light,Helvetica" font-size="36.0" fill="#EEEEEE" transform="matrix(1.00, 0.00, -0.00, -1.00, 204.1, 308.3)">S</text><text xml:space="preserve" font-family="Helvetica-Light,Helvetica" font-size="36.0" fill="#EEEEEE" transform="matrix(1.00, 0.00, -0.00, -1.00, 226.1, 308.3)">u</text><text xml:space="preserve" font-family="Helvetica-Light,Helvetica" font-size="36.0" fill="#EEEEEE" transform="matrix(1.00, 0.00, -0.00, -1.00, 246.1, 308.3)">m</text><text xml:space="preserve" font-family="Helvetica-Light,Helvetica" font-size="36.0" fill="#EEEEEE" transform="matrix(1.00, 0.00, -0.00, -1.00, 276.1, 308.3)">m</text><text xml:space="preserve" font-family="Helvetica-Light,Helvetica" font-size="36.0" fill="#EEEEEE" transform="matrix(1.00, 0.00, -0.00, -1.00, 306.1, 308.3)">e</text><text xml:space="preserve" font-family="Helvetica-Light,Helvetica" font-size="36.0" fill="#EEEEEE" transform="matrix(1.00, 0.00, -0.00, -1.00, 326.1, 308.3)">r</text><text xml:space="preserve" font-family="Helvetica-Light,Helvetica" font-size="36.0" fill="#EEEEEE" transform="matrix(1.00, 0.00, -0.00, -1.00, 338.1, 308.3)"> </text><text xml:space="preserve" font-family="Helvetica-Light,Helvetica" font-size="36.0" fill="#EEEEEE" transform="matrix(1.00, 0.00, -0.00, -1.00, 348.1, 308.3)">i</text><text xml:space="preserve" font-family="Helvetica-Light,Helvetica" font-size="36.0" fill="#EEEEEE" transform="matrix(1.00, 0.00, -0.00, -1.00, 356.1, 308.3)">n</text><text xml:space="preserve" font-family="Helvetica-Light,Helvetica" font-size="36.0" fill="#EEEEEE" transform="matrix(1.00, 0.00, -0.00, -1.00, 376.1, 308.3)">t</text><text xml:space="preserve" font-family="Helvetica-Light,Helvetica" font-size="36.0" fill="#EEEEEE" transform="matrix(1.00, 0.00, -0.00, -1.00, 386.1, 308.3)">e</text><text xml:space="preserve" font-family="Helvetica-Light,Helvetica" font-size="36.0" fill="#EEEEEE" transform="matrix(1.00, 0.00, -0.00, -1.00, 406.1, 308.3)">r</text><text xml:space="preserve" font-family="Helvetica-Light,Helvetica" font-size="36.0" fill="#EEEEEE" transform="matrix(1.00, 0.00, -0.00, -1.00, 418.7, 308.3)">n</text><text xml:space="preserve" font-family="Helvetica-Light,Helvetica" font-size="36.0" fill="#EEEEEE" transform="matrix(1.00, 0.00, -0.00, -1.00, 438.8, 308.3)"> </text><text xml:space="preserve" font-family="Helvetica-Light,Helvetica" font-size="36.0" fill="#EEEEEE" transform="matrix(1.00, 0.00, -0.00, -1.00, 448.8, 308.3)">o</text><text xml:space="preserve" font-family="Helvetica-Light,Helvetica" font-size="36.0" fill="#EEEEEE" transform="matrix(1.00, 0.00, -0.00, -1.00, 468.8, 308.3)">n</text><text xml:space="preserve" font-family="Helvetica-Light,Helvetica" font-size="36.0" fill="#EEEEEE" transform="matrix(1.00, 0.00, -0.00, -1.00, 488.8, 308.3)"> </text><text xml:space="preserve" font-family="Helvetica-Light,Helvetica" font-size="36.0" fill="#EEEEEE" transform="matrix(1.00, 0.00, -0.00, -1.00, 498.8, 308.3)">t</text><text xml:space="preserve" font-family="Helvetica-Light,Helvetica" font-size="36.0" fill="#EEEEEE" transform="matrix(1.00, 0.00, -0.00, -1.00, 508.8, 308.3)">h</text><text xml:space="preserve" font-family="Helvetica-Light,Helvetica" font-size="36.0" fill="#EEEEEE" transform="matrix(1.00, 0.00, -0.00, -1.00, 528.8, 308.3)">e</text><text xml:space="preserve" font-family="Helvetica-Light,Helvetica" font-size="36.0" fill="#EEEEEE" transform="matrix(1.00, 0.00, -0.00, -1.00, 548.8, 308.3)"> </text><text xml:space="preserve" font-family="Helvetica-Light,Helvetica" font-size="36.0" fill="#EEEEEE" transform="matrix(1.00, 0.00, -0.00, -1.00, 558.9, 308.3)">A</text><text xml:space="preserve" font-family="Helvetica-Light,Helvetica" font-size="36.0" fill="#EEEEEE" transform="matrix(1.00, 0.00, -0.00, -1.00, 582.9, 308.3)">n</text><text xml:space="preserve" font-family="Helvetica-Light,Helvetica" font-size="36.0" fill="#EEEEEE" transform="matrix(1.00, 0.00, -0.00, -1.00, 602.9, 308.3)">g</text><text xml:space="preserve" font-family="Helvetica-Light,Helvetica" font-size="36.0" fill="#EEEEEE" transform="matrix(1.00, 0.00, -0.00, -1.00, 624.9, 308.3)">u</text><text xml:space="preserve" font-family="Helvetica-Light,Helvetica" font-size="36.0" fill="#EEEEEE" transform="matrix(1.00, 0.00, -0.00, -1.00, 644.9, 308.3)">l</text><text xml:space="preserve" font-family="Helvetica-Light,Helvetica" font-size="36.0" fill="#EEEEEE" transform="matrix(1.00, 0.00, -0.00, -1.00, 652.9, 308.3)">a</text><text xml:space="preserve" font-family="Helvetica-Light,Helvetica" font-size="36.0" fill="#EEEEEE" transform="matrix(1.00, 0.00, -0.00, -1.00, 672.9, 308.3)">r</text><text xml:space="preserve" font-family="Helvetica-Light,Helvetica" font-size="36.0" fill="#EEEEEE" transform="matrix(1.00, 0.00, -0.00, -1.00, 684.9, 308.3)"> </text><text xml:space="preserve" font-family="Helvetica-Light,Helvetica" font-size="36.0" fill="#EEEEEE" transform="matrix(1.00, 0.00, -0.00, -1.00, 694.9, 308.3)">t</text><text xml:space="preserve" font-family="Helvetica-Light,Helvetica" font-size="36.0" fill="#EEEEEE" transform="matrix(1.00, 0.00, -0.00, -1.00, 704.9, 308.3)">e</text><text xml:space="preserve" font-family="Helvetica-Light,Helvetica" font-size="36.0" fill="#EEEEEE" transform="matrix(1.00, 0.00, -0.00, -1.00, 724.9, 308.3)">a</text><text xml:space="preserve" font-family="Helvetica-Light,Helvetica" font-size="36.0" fill="#EEEEEE" transform="matrix(1.00, 0.00, -0.00, -1.00, 744.9, 308.3)">m</text></g></svg>