<?xml version="1.0" encoding="UTF-8" standalone="no"?><svg xmlns="http://www.w3.org/2000/svg" xmlns:xlink="http://www.w3.org/1999/xlink" clip-rule="evenodd" stroke-miterlimit="10" viewBox="0 0 1024 768"><desc>SVG generated by Keynote</desc><defs><radialGradient id="gradSh1.24" cx="0.0" cy="0.0" r="100.0" fx="0.0" fy="0.0" gradientUnits="userSpaceOnUse" gradientTransform="matrix(5.13, -3.85, -3.85, -5.13, 512.0, 384.0)"><stop offset="0.00000" stop-color="#565A5F"></stop><stop offset="0.00806" stop-color="#565A5E"></stop><stop offset="0.38196" stop-color="#3F4347"></stop><stop offset="0.38930" stop-color="#3F4346"></stop><stop offset="0.44208" stop-color="#3C3F43"></stop><stop offset="0.44941" stop-color="#3B3F43"></stop><stop offset="0.50073" stop-color="#383C3F"></stop><stop offset="0.50880" stop-color="#383B3F"></stop><stop offset="0.92375" stop-color="#1F2325"></stop><stop offset="0.92522" stop-color="#1F2225"></stop><stop offset="1.00000" stop-color="#1B1E20"></stop></radialGradient></defs><g transform="matrix(1.00, 0.00, -0.00, -1.00, 0.0, 768.0)"><g><clipPath id="clip0x6000054a4200"><path d="M 0.0 768.0 L 1024.0 768.0 L 1024.0 0.0 L 0.0 0.0 Z M 0.0 768.0 "></path></clipPath><g clip-path="url(#clip0x6000054a4200)"><path d="M 0.0 768.0 L 1024.0 768.0 L 1024.0 0.0 L 0.0 0.0 Z M 0.0 768.0 " fill="url(#gradSh1.24)"></path></g></g><text xml:space="preserve" font-family="Helvetica-Light,Helvetica" font-size="80.0" fill="#EEEEEE" transform="matrix(1.00, 0.00, -0.00, -1.00, 118.5, 618.4)">D</text><text xml:space="preserve" font-family="Helvetica-Light,Helvetica" font-size="80.0" fill="#EEEEEE" transform="matrix(1.00, 0.00, -0.00, -1.00, 176.2, 618.4)">e</text><text xml:space="preserve" font-family="Helvetica-Light,Helvetica" font-size="80.0" fill="#EEEEEE" transform="matrix(1.00, 0.00, -0.00, -1.00, 220.7, 618.4)">p</text><text xml:space="preserve" font-family="Helvetica-Light,Helvetica" font-size="80.0" fill="#EEEEEE" transform="matrix(1.00, 0.00, -0.00, -1.00, 269.6, 618.4)">e</text><text xml:space="preserve" font-family="Helvetica-Light,Helvetica" font-size="80.0" fill="#EEEEEE" transform="matrix(1.00, 0.00, -0.00, -1.00, 314.1, 618.4)">n</text><text xml:space="preserve" font-family="Helvetica-Light,Helvetica" font-size="80.0" fill="#EEEEEE" transform="matrix(1.00, 0.00, -0.00, -1.00, 358.6, 618.4)">d</text><text xml:space="preserve" font-family="Helvetica-Light,Helvetica" font-size="80.0" fill="#EEEEEE" transform="matrix(1.00, 0.00, -0.00, -1.00, 407.4, 618.4)">e</text><text xml:space="preserve" font-family="Helvetica-Light,Helvetica" font-size="80.0" fill="#EEEEEE" transform="matrix(1.00, 0.00, -0.00, -1.00, 451.9, 618.4)">n</text><text xml:space="preserve" font-family="Helvetica-Light,Helvetica" font-size="80.0" fill="#EEEEEE" transform="matrix(1.00, 0.00, -0.00, -1.00, 496.4, 618.4)">c</text><text xml:space="preserve" font-family="Helvetica-Light,Helvetica" font-size="80.0" fill="#EEEEEE" transform="matrix(1.00, 0.00, -0.00, -1.00, 540.9, 618.4)">y</text><text xml:space="preserve" font-family="Helvetica-Light,Helvetica" font-size="80.0" fill="#EEEEEE" transform="matrix(1.00, 0.00, -0.00, -1.00, 580.9, 618.4)"> </text><text xml:space="preserve" font-family="Helvetica-Light,Helvetica" font-size="80.0" fill="#EEEEEE" transform="matrix(1.00, 0.00, -0.00, -1.00, 603.1, 618.4)">I</text><text xml:space="preserve" font-family="Helvetica-Light,Helvetica" font-size="80.0" fill="#EEEEEE" transform="matrix(1.00, 0.00, -0.00, -1.00, 625.4, 618.4)">n</text><text xml:space="preserve" font-family="Helvetica-Light,Helvetica" font-size="80.0" fill="#EEEEEE" transform="matrix(1.00, 0.00, -0.00, -1.00, 669.8, 618.4)">j</text><text xml:space="preserve" font-family="Helvetica-Light,Helvetica" font-size="80.0" fill="#EEEEEE" transform="matrix(1.00, 0.00, -0.00, -1.00, 687.6, 618.4)">e</text><text xml:space="preserve" font-family="Helvetica-Light,Helvetica" font-size="80.0" fill="#EEEEEE" transform="matrix(1.00, 0.00, -0.00, -1.00, 732.1, 618.4)">c</text><text xml:space="preserve" font-family="Helvetica-Light,Helvetica" font-size="80.0" fill="#EEEEEE" transform="matrix(1.00, 0.00, -0.00, -1.00, 776.6, 618.4)">t</text><text xml:space="preserve" font-family="Helvetica-Light,Helvetica" font-size="80.0" fill="#EEEEEE" transform="matrix(1.00, 0.00, -0.00, -1.00, 798.8, 618.4)">i</text><text xml:space="preserve" font-family="Helvetica-Light,Helvetica" font-size="80.0" fill="#EEEEEE" transform="matrix(1.00, 0.00, -0.00, -1.00, 816.6, 618.4)">o</text><text xml:space="preserve" font-family="Helvetica-Light,Helvetica" font-size="80.0" fill="#EEEEEE" transform="matrix(1.00, 0.00, -0.00, -1.00, 861.0, 618.4)">n</text><text xml:space="preserve" font-family="Helvetica-Light,Helvetica" font-size="60.0" fill="#EEEEEE" transform="matrix(1.00, 0.00, -0.00, -1.00, 235.2, 356.8)">N</text><text xml:space="preserve" font-family="Helvetica-Light,Helvetica" font-size="60.0" fill="#EEEEEE" transform="matrix(1.00, 0.00, -0.00, -1.00, 278.5, 356.8)">o</text><text xml:space="preserve" font-family="Helvetica-Light,Helvetica" font-size="60.0" fill="#EEEEEE" transform="matrix(1.00, 0.00, -0.00, -1.00, 311.9, 356.8)">t</text><text xml:space="preserve" font-family="Helvetica-Light,Helvetica" font-size="60.0" fill="#EEEEEE" transform="matrix(1.00, 0.00, -0.00, -1.00, 328.6, 356.8)"> </text><text xml:space="preserve" font-family="Helvetica-Light,Helvetica" font-size="60.0" fill="#EEEEEE" transform="matrix(1.00, 0.00, -0.00, -1.00, 345.3, 356.8)">a</text><text xml:space="preserve" font-family="Helvetica-Light,Helvetica" font-size="60.0" fill="#EEEEEE" transform="matrix(1.00, 0.00, -0.00, -1.00, 378.6, 356.8)"> </text><text xml:space="preserve" font-family="Helvetica-Light,Helvetica" font-size="60.0" fill="#EEEEEE" transform="matrix(1.00, 0.00, -0.00, -1.00, 395.3, 356.8)">s</text><text xml:space="preserve" font-family="Helvetica-Light,Helvetica" font-size="60.0" fill="#EEEEEE" transform="matrix(1.00, 0.00, -0.00, -1.00, 425.3, 356.8)">e</text><text xml:space="preserve" font-family="Helvetica-Light,Helvetica" font-size="60.0" fill="#EEEEEE" transform="matrix(1.00, 0.00, -0.00, -1.00, 458.7, 356.8)">r</text><text xml:space="preserve" font-family="Helvetica-Light,Helvetica" font-size="60.0" fill="#EEEEEE" transform="matrix(1.00, 0.00, -0.00, -1.00, 478.6, 356.8)">v</text><text xml:space="preserve" font-family="Helvetica-Light,Helvetica" font-size="60.0" fill="#EEEEEE" transform="matrix(1.00, 0.00, -0.00, -1.00, 508.6, 356.8)">i</text><text xml:space="preserve" font-family="Helvetica-Light,Helvetica" font-size="60.0" fill="#EEEEEE" transform="matrix(1.00, 0.00, -0.00, -1.00, 522.0, 356.8)">c</text><text xml:space="preserve" font-family="Helvetica-Light,Helvetica" font-size="60.0" fill="#EEEEEE" transform="matrix(1.00, 0.00, -0.00, -1.00, 555.3, 356.8)">e</text><text xml:space="preserve" font-family="Helvetica-Light,Helvetica" font-size="60.0" fill="#EEEEEE" transform="matrix(1.00, 0.00, -0.00, -1.00, 588.7, 356.8)"> </text><text xml:space="preserve" font-family="Helvetica-Light,Helvetica" font-size="60.0" fill="#EEEEEE" transform="matrix(1.00, 0.00, -0.00, -1.00, 605.4, 356.8)">l</text><text xml:space="preserve" font-family="Helvetica-Light,Helvetica" font-size="60.0" fill="#EEEEEE" transform="matrix(1.00, 0.00, -0.00, -1.00, 618.7, 356.8)">o</text><text xml:space="preserve" font-family="Helvetica-Light,Helvetica" font-size="60.0" fill="#EEEEEE" transform="matrix(1.00, 0.00, -0.00, -1.00, 652.0, 356.8)">c</text><text xml:space="preserve" font-family="Helvetica-Light,Helvetica" font-size="60.0" fill="#EEEEEE" transform="matrix(1.00, 0.00, -0.00, -1.00, 685.4, 356.8)">a</text><text xml:space="preserve" font-family="Helvetica-Light,Helvetica" font-size="60.0" fill="#EEEEEE" transform="matrix(1.00, 0.00, -0.00, -1.00, 718.8, 356.8)">t</text><text xml:space="preserve" font-family="Helvetica-Light,Helvetica" font-size="60.0" fill="#EEEEEE" transform="matrix(1.00, 0.00, -0.00, -1.00, 735.4, 356.8)">o</text><text xml:space="preserve" font-family="Helvetica-Light,Helvetica" font-size="60.0" fill="#EEEEEE" transform="matrix(1.00, 0.00, -0.00, -1.00, 768.8, 356.8)">r</text><text xml:space="preserve" font-family="Helvetica-Light,Helvetica" font-size="60.0" fill="#EEEEEE" transform="matrix(1.00, 0.00, -0.00, -1.00, 788.8, 356.8)"> </text><text xml:space="preserve" font-family="Helvetica-Light,Helvetica" font-size="28.0" fill="#EEEEEE" transform="matrix(1.00, 0.00, -0.00, -1.00, 419.7, 283.4)">e</text><text xml:space="preserve" font-family="Helvetica-Light,Helvetica" font-size="28.0" fill="#EEEEEE" transform="matrix(1.00, 0.00, -0.00, -1.00, 435.2, 283.4)">.</text><text xml:space="preserve" font-family="Helvetica-Light,Helvetica" font-size="28.0" fill="#EEEEEE" transform="matrix(1.00, 0.00, -0.00, -1.00, 443.0, 283.4)">g</text><text xml:space="preserve" font-family="Helvetica-Light,Helvetica" font-size="28.0" fill="#EEEEEE" transform="matrix(1.00, 0.00, -0.00, -1.00, 460.1, 283.4)">.</text><text xml:space="preserve" font-family="Helvetica-Light,Helvetica" font-size="28.0" fill="#EEEEEE" transform="matrix(1.00, 0.00, -0.00, -1.00, 467.9, 283.4)"> </text><text xml:space="preserve" font-family="Helvetica-Light,Helvetica" font-size="28.0" fill="#EEEEEE" transform="matrix(1.00, 0.00, -0.00, -1.00, 475.7, 283.4)">R</text><text xml:space="preserve" font-family="Helvetica-Light,Helvetica" font-size="28.0" fill="#EEEEEE" transform="matrix(1.00, 0.00, -0.00, -1.00, 494.4, 283.4)">e</text><text xml:space="preserve" font-family="Helvetica-Light,Helvetica" font-size="28.0" fill="#EEEEEE" transform="matrix(1.00, 0.00, -0.00, -1.00, 509.9, 283.4)">q</text><text xml:space="preserve" font-family="Helvetica-Light,Helvetica" font-size="28.0" fill="#EEEEEE" transform="matrix(1.00, 0.00, -0.00, -1.00, 527.1, 283.4)">u</text><text xml:space="preserve" font-family="Helvetica-Light,Helvetica" font-size="28.0" fill="#EEEEEE" transform="matrix(1.00, 0.00, -0.00, -1.00, 542.6, 283.4)">i</text><text xml:space="preserve" font-family="Helvetica-Light,Helvetica" font-size="28.0" fill="#EEEEEE" transform="matrix(1.00, 0.00, -0.00, -1.00, 548.8, 283.4)">r</text><text xml:space="preserve" font-family="Helvetica-Light,Helvetica" font-size="28.0" fill="#EEEEEE" transform="matrix(1.00, 0.00, -0.00, -1.00, 557.7, 283.4)">e</text><text xml:space="preserve" font-family="Helvetica-Light,Helvetica" font-size="28.0" fill="#EEEEEE" transform="matrix(1.00, 0.00, -0.00, -1.00, 573.2, 283.4)">J</text><text xml:space="preserve" font-family="Helvetica-Light,Helvetica" font-size="28.0" fill="#EEEEEE" transform="matrix(1.00, 0.00, -0.00, -1.00, 587.2, 283.4)">S</text></g></svg>