<?xml version="1.0" encoding="UTF-8" standalone="no"?><svg xmlns="http://www.w3.org/2000/svg" xmlns:xlink="http://www.w3.org/1999/xlink" clip-rule="evenodd" stroke-miterlimit="10" viewBox="0 0 1024 768"><desc>SVG generated by Keynote</desc><defs><radialGradient id="gradSh1.26" cx="0.0" cy="0.0" r="100.0" fx="0.0" fy="0.0" gradientUnits="userSpaceOnUse" gradientTransform="matrix(5.13, -3.85, -3.85, -5.13, 512.0, 384.0)"><stop offset="0.00000" stop-color="#565A5F"></stop><stop offset="0.00806" stop-color="#565A5E"></stop><stop offset="0.38196" stop-color="#3F4347"></stop><stop offset="0.38930" stop-color="#3F4346"></stop><stop offset="0.44208" stop-color="#3C3F43"></stop><stop offset="0.44941" stop-color="#3B3F43"></stop><stop offset="0.50073" stop-color="#383C3F"></stop><stop offset="0.50880" stop-color="#383B3F"></stop><stop offset="0.92375" stop-color="#1F2325"></stop><stop offset="0.92522" stop-color="#1F2225"></stop><stop offset="1.00000" stop-color="#1B1E20"></stop></radialGradient></defs><g transform="matrix(1.00, 0.00, -0.00, -1.00, 0.0, 768.0)"><g><clipPath id="clip0x608004ead140"><path d="M 0.0 768.0 L 1024.0 768.0 L 1024.0 0.0 L 0.0 0.0 Z M 0.0 768.0 "></path></clipPath><g clip-path="url(#clip0x608004ead140)"><path d="M 0.0 768.0 L 1024.0 768.0 L 1024.0 0.0 L 0.0 0.0 Z M 0.0 768.0 " fill="url(#gradSh1.26)"></path></g></g><text xml:space="preserve" font-family="Helvetica-Light,Helvetica" font-size="80.0" fill="#EEEEEE" transform="matrix(1.00, 0.00, -0.00, -1.00, 118.5, 618.4)">D</text><text xml:space="preserve" font-family="Helvetica-Light,Helvetica" font-size="80.0" fill="#EEEEEE" transform="matrix(1.00, 0.00, -0.00, -1.00, 176.2, 618.4)">e</text><text xml:space="preserve" font-family="Helvetica-Light,Helvetica" font-size="80.0" fill="#EEEEEE" transform="matrix(1.00, 0.00, -0.00, -1.00, 220.7, 618.4)">p</text><text xml:space="preserve" font-family="Helvetica-Light,Helvetica" font-size="80.0" fill="#EEEEEE" transform="matrix(1.00, 0.00, -0.00, -1.00, 269.6, 618.4)">e</text><text xml:space="preserve" font-family="Helvetica-Light,Helvetica" font-size="80.0" fill="#EEEEEE" transform="matrix(1.00, 0.00, -0.00, -1.00, 314.1, 618.4)">n</text><text xml:space="preserve" font-family="Helvetica-Light,Helvetica" font-size="80.0" fill="#EEEEEE" transform="matrix(1.00, 0.00, -0.00, -1.00, 358.6, 618.4)">d</text><text xml:space="preserve" font-family="Helvetica-Light,Helvetica" font-size="80.0" fill="#EEEEEE" transform="matrix(1.00, 0.00, -0.00, -1.00, 407.4, 618.4)">e</text><text xml:space="preserve" font-family="Helvetica-Light,Helvetica" font-size="80.0" fill="#EEEEEE" transform="matrix(1.00, 0.00, -0.00, -1.00, 451.9, 618.4)">n</text><text xml:space="preserve" font-family="Helvetica-Light,Helvetica" font-size="80.0" fill="#EEEEEE" transform="matrix(1.00, 0.00, -0.00, -1.00, 496.4, 618.4)">c</text><text xml:space="preserve" font-family="Helvetica-Light,Helvetica" font-size="80.0" fill="#EEEEEE" transform="matrix(1.00, 0.00, -0.00, -1.00, 540.9, 618.4)">y</text><text xml:space="preserve" font-family="Helvetica-Light,Helvetica" font-size="80.0" fill="#EEEEEE" transform="matrix(1.00, 0.00, -0.00, -1.00, 580.9, 618.4)"> </text><text xml:space="preserve" font-family="Helvetica-Light,Helvetica" font-size="80.0" fill="#EEEEEE" transform="matrix(1.00, 0.00, -0.00, -1.00, 603.1, 618.4)">I</text><text xml:space="preserve" font-family="Helvetica-Light,Helvetica" font-size="80.0" fill="#EEEEEE" transform="matrix(1.00, 0.00, -0.00, -1.00, 625.4, 618.4)">n</text><text xml:space="preserve" font-family="Helvetica-Light,Helvetica" font-size="80.0" fill="#EEEEEE" transform="matrix(1.00, 0.00, -0.00, -1.00, 669.8, 618.4)">j</text><text xml:space="preserve" font-family="Helvetica-Light,Helvetica" font-size="80.0" fill="#EEEEEE" transform="matrix(1.00, 0.00, -0.00, -1.00, 687.6, 618.4)">e</text><text xml:space="preserve" font-family="Helvetica-Light,Helvetica" font-size="80.0" fill="#EEEEEE" transform="matrix(1.00, 0.00, -0.00, -1.00, 732.1, 618.4)">c</text><text xml:space="preserve" font-family="Helvetica-Light,Helvetica" font-size="80.0" fill="#EEEEEE" transform="matrix(1.00, 0.00, -0.00, -1.00, 776.6, 618.4)">t</text><text xml:space="preserve" font-family="Helvetica-Light,Helvetica" font-size="80.0" fill="#EEEEEE" transform="matrix(1.00, 0.00, -0.00, -1.00, 798.8, 618.4)">i</text><text xml:space="preserve" font-family="Helvetica-Light,Helvetica" font-size="80.0" fill="#EEEEEE" transform="matrix(1.00, 0.00, -0.00, -1.00, 816.6, 618.4)">o</text><text xml:space="preserve" font-family="Helvetica-Light,Helvetica" font-size="80.0" fill="#EEEEEE" transform="matrix(1.00, 0.00, -0.00, -1.00, 861.0, 618.4)">n</text><text xml:space="preserve" font-family="Helvetica-Light,Helvetica" font-size="60.0" fill="#EEEEEE" transform="matrix(1.00, 0.00, -0.00, -1.00, 191.9, 356.8)">I</text><text xml:space="preserve" font-family="Helvetica-Light,Helvetica" font-size="60.0" fill="#EEEEEE" transform="matrix(1.00, 0.00, -0.00, -1.00, 208.6, 356.8)">n</text><text xml:space="preserve" font-family="Helvetica-Light,Helvetica" font-size="60.0" fill="#EEEEEE" transform="matrix(1.00, 0.00, -0.00, -1.00, 241.9, 356.8)">j</text><text xml:space="preserve" font-family="Helvetica-Light,Helvetica" font-size="60.0" fill="#EEEEEE" transform="matrix(1.00, 0.00, -0.00, -1.00, 255.2, 356.8)">e</text><text xml:space="preserve" font-family="Helvetica-Light,Helvetica" font-size="60.0" fill="#EEEEEE" transform="matrix(1.00, 0.00, -0.00, -1.00, 288.6, 356.8)">c</text><text xml:space="preserve" font-family="Helvetica-Light,Helvetica" font-size="60.0" fill="#EEEEEE" transform="matrix(1.00, 0.00, -0.00, -1.00, 321.9, 356.8)">t</text><text xml:space="preserve" font-family="Helvetica-Light,Helvetica" font-size="60.0" fill="#EEEEEE" transform="matrix(1.00, 0.00, -0.00, -1.00, 338.6, 356.8)">i</text><text xml:space="preserve" font-family="Helvetica-Light,Helvetica" font-size="60.0" fill="#EEEEEE" transform="matrix(1.00, 0.00, -0.00, -1.00, 351.9, 356.8)">n</text><text xml:space="preserve" font-family="Helvetica-Light,Helvetica" font-size="60.0" fill="#EEEEEE" transform="matrix(1.00, 0.00, -0.00, -1.00, 385.3, 356.8)">g</text><text xml:space="preserve" font-family="Helvetica-Light,Helvetica" font-size="60.0" fill="#EEEEEE" transform="matrix(1.00, 0.00, -0.00, -1.00, 422.0, 356.8)"> </text><text xml:space="preserve" font-family="Helvetica-Light,Helvetica" font-size="60.0" fill="#EEEEEE" transform="matrix(1.00, 0.00, -0.00, -1.00, 438.6, 356.8)">D</text><text xml:space="preserve" font-family="Helvetica-Light,Helvetica" font-size="60.0" fill="#EEEEEE" transform="matrix(1.00, 0.00, -0.00, -1.00, 482.0, 356.8)">e</text><text xml:space="preserve" font-family="Helvetica-Light,Helvetica" font-size="60.0" fill="#EEEEEE" transform="matrix(1.00, 0.00, -0.00, -1.00, 515.3, 356.8)">p</text><text xml:space="preserve" font-family="Helvetica-Light,Helvetica" font-size="60.0" fill="#EEEEEE" transform="matrix(1.00, 0.00, -0.00, -1.00, 552.0, 356.8)">e</text><text xml:space="preserve" font-family="Helvetica-Light,Helvetica" font-size="60.0" fill="#EEEEEE" transform="matrix(1.00, 0.00, -0.00, -1.00, 585.4, 356.8)">n</text><text xml:space="preserve" font-family="Helvetica-Light,Helvetica" font-size="60.0" fill="#EEEEEE" transform="matrix(1.00, 0.00, -0.00, -1.00, 618.7, 356.8)">d</text><text xml:space="preserve" font-family="Helvetica-Light,Helvetica" font-size="60.0" fill="#EEEEEE" transform="matrix(1.00, 0.00, -0.00, -1.00, 655.4, 356.8)">e</text><text xml:space="preserve" font-family="Helvetica-Light,Helvetica" font-size="60.0" fill="#EEEEEE" transform="matrix(1.00, 0.00, -0.00, -1.00, 688.7, 356.8)">n</text><text xml:space="preserve" font-family="Helvetica-Light,Helvetica" font-size="60.0" fill="#EEEEEE" transform="matrix(1.00, 0.00, -0.00, -1.00, 722.1, 356.8)">c</text><text xml:space="preserve" font-family="Helvetica-Light,Helvetica" font-size="60.0" fill="#EEEEEE" transform="matrix(1.00, 0.00, -0.00, -1.00, 755.5, 356.8)">i</text><text xml:space="preserve" font-family="Helvetica-Light,Helvetica" font-size="60.0" fill="#EEEEEE" transform="matrix(1.00, 0.00, -0.00, -1.00, 768.8, 356.8)">e</text><text xml:space="preserve" font-family="Helvetica-Light,Helvetica" font-size="60.0" fill="#EEEEEE" transform="matrix(1.00, 0.00, -0.00, -1.00, 802.1, 356.8)">s</text></g></svg>