<?xml version="1.0" encoding="UTF-8" standalone="no"?><svg xmlns="http://www.w3.org/2000/svg" xmlns:xlink="http://www.w3.org/1999/xlink" clip-rule="evenodd" stroke-miterlimit="10" viewBox="0 0 1024 768"><desc>SVG generated by Keynote</desc><defs><radialGradient id="gradSh1.19" cx="0.0" cy="0.0" r="100.0" fx="0.0" fy="0.0" gradientUnits="userSpaceOnUse" gradientTransform="matrix(5.13, -3.85, -3.85, -5.13, 512.0, 384.0)"><stop offset="0.00000" stop-color="#565A5F"></stop><stop offset="0.00806" stop-color="#565A5E"></stop><stop offset="0.38196" stop-color="#3F4347"></stop><stop offset="0.38930" stop-color="#3F4346"></stop><stop offset="0.44208" stop-color="#3C3F43"></stop><stop offset="0.44941" stop-color="#3B3F43"></stop><stop offset="0.50073" stop-color="#383C3F"></stop><stop offset="0.50880" stop-color="#383B3F"></stop><stop offset="0.92375" stop-color="#1F2325"></stop><stop offset="0.92522" stop-color="#1F2225"></stop><stop offset="1.00000" stop-color="#1B1E20"></stop></radialGradient></defs><g transform="matrix(1.00, 0.00, -0.00, -1.00, 0.0, 768.0)"><g><clipPath id="clip0x6000044a0300"><path d="M 0.0 768.0 L 1024.0 768.0 L 1024.0 0.0 L 0.0 0.0 Z M 0.0 768.0 "></path></clipPath><g clip-path="url(#clip0x6000044a0300)"><path d="M 0.0 768.0 L 1024.0 768.0 L 1024.0 0.0 L 0.0 0.0 Z M 0.0 768.0 " fill="url(#gradSh1.19)"></path></g></g><text xml:space="preserve" font-family="Helvetica-Light,Helvetica" font-size="80.0" fill="#EEEEEE" transform="matrix(1.00, 0.00, -0.00, -1.00, 344.5, 387.4)">W</text><text xml:space="preserve" font-family="Helvetica-Light,Helvetica" font-size="80.0" fill="#EEEEEE" transform="matrix(1.00, 0.00, -0.00, -1.00, 412.7, 387.4)">a</text><text xml:space="preserve" font-family="Helvetica-Light,Helvetica" font-size="80.0" fill="#EEEEEE" transform="matrix(1.00, 0.00, -0.00, -1.00, 457.2, 387.4)">t</text><text xml:space="preserve" font-family="Helvetica-Light,Helvetica" font-size="80.0" fill="#EEEEEE" transform="matrix(1.00, 0.00, -0.00, -1.00, 479.4, 387.4)">c</text><text xml:space="preserve" font-family="Helvetica-Light,Helvetica" font-size="80.0" fill="#EEEEEE" transform="matrix(1.00, 0.00, -0.00, -1.00, 523.9, 387.4)">h</text><text xml:space="preserve" font-family="Helvetica-Light,Helvetica" font-size="80.0" fill="#EEEEEE" transform="matrix(1.00, 0.00, -0.00, -1.00, 568.4, 387.4)">e</text><text xml:space="preserve" font-family="Helvetica-Light,Helvetica" font-size="80.0" fill="#EEEEEE" transform="matrix(1.00, 0.00, -0.00, -1.00, 612.8, 387.4)">r</text><text xml:space="preserve" font-family="Helvetica-Light,Helvetica" font-size="80.0" fill="#EEEEEE" transform="matrix(1.00, 0.00, -0.00, -1.00, 639.5, 387.4)">s</text><text xml:space="preserve" font-family="Helvetica-Light,Helvetica" font-size="80.0" fill="#EEEEEE" transform="matrix(1.00, 0.00, -0.00, -1.00, 679.5, 387.4)"> </text><text xml:space="preserve" font-family="Helvetica-Light,Helvetica" font-size="28.0" fill="#EEEEEE" transform="matrix(1.00, 0.00, -0.00, -1.00, 419.2, 309.4)">D</text><text xml:space="preserve" font-family="Helvetica-Light,Helvetica" font-size="28.0" fill="#EEEEEE" transform="matrix(1.00, 0.00, -0.00, -1.00, 439.4, 309.4)">i</text><text xml:space="preserve" font-family="Helvetica-Light,Helvetica" font-size="28.0" fill="#EEEEEE" transform="matrix(1.00, 0.00, -0.00, -1.00, 445.6, 309.4)">r</text><text xml:space="preserve" font-family="Helvetica-Light,Helvetica" font-size="28.0" fill="#EEEEEE" transform="matrix(1.00, 0.00, -0.00, -1.00, 455.4, 309.4)">t</text><text xml:space="preserve" font-family="Helvetica-Light,Helvetica" font-size="28.0" fill="#EEEEEE" transform="matrix(1.00, 0.00, -0.00, -1.00, 463.2, 309.4)">y</text><text xml:space="preserve" font-family="Helvetica-Light,Helvetica" font-size="28.0" fill="#EEEEEE" transform="matrix(1.00, 0.00, -0.00, -1.00, 477.2, 309.4)"> </text><text xml:space="preserve" font-family="Helvetica-Light,Helvetica" font-size="28.0" fill="#EEEEEE" transform="matrix(1.00, 0.00, -0.00, -1.00, 485.0, 309.4)">C</text><text xml:space="preserve" font-family="Helvetica-Light,Helvetica" font-size="28.0" fill="#EEEEEE" transform="matrix(1.00, 0.00, -0.00, -1.00, 505.2, 309.4)">h</text><text xml:space="preserve" font-family="Helvetica-Light,Helvetica" font-size="28.0" fill="#EEEEEE" transform="matrix(1.00, 0.00, -0.00, -1.00, 520.8, 309.4)">e</text><text xml:space="preserve" font-family="Helvetica-Light,Helvetica" font-size="28.0" fill="#EEEEEE" transform="matrix(1.00, 0.00, -0.00, -1.00, 536.4, 309.4)">c</text><text xml:space="preserve" font-family="Helvetica-Light,Helvetica" font-size="28.0" fill="#EEEEEE" transform="matrix(1.00, 0.00, -0.00, -1.00, 551.9, 309.4)">k</text><text xml:space="preserve" font-family="Helvetica-Light,Helvetica" font-size="28.0" fill="#EEEEEE" transform="matrix(1.00, 0.00, -0.00, -1.00, 565.9, 309.4)">i</text><text xml:space="preserve" font-family="Helvetica-Light,Helvetica" font-size="28.0" fill="#EEEEEE" transform="matrix(1.00, 0.00, -0.00, -1.00, 572.1, 309.4)">n</text><text xml:space="preserve" font-family="Helvetica-Light,Helvetica" font-size="28.0" fill="#EEEEEE" transform="matrix(1.00, 0.00, -0.00, -1.00, 587.7, 309.4)">g</text></g></svg>