<?xml version="1.0" encoding="UTF-8" standalone="no"?><svg xmlns="http://www.w3.org/2000/svg" xmlns:xlink="http://www.w3.org/1999/xlink" clip-rule="evenodd" stroke-miterlimit="10" viewBox="0 0 1024 768"><desc>SVG generated by Keynote</desc><defs><radialGradient id="gradSh1.43" cx="0.0" cy="0.0" r="100.0" fx="0.0" fy="0.0" gradientUnits="userSpaceOnUse" gradientTransform="matrix(5.13, -3.85, -3.85, -5.13, 512.0, 384.0)"><stop offset="0.00000" stop-color="#565A5F"></stop><stop offset="0.00806" stop-color="#565A5E"></stop><stop offset="0.38196" stop-color="#3F4347"></stop><stop offset="0.38930" stop-color="#3F4346"></stop><stop offset="0.44208" stop-color="#3C3F43"></stop><stop offset="0.44941" stop-color="#3B3F43"></stop><stop offset="0.50073" stop-color="#383C3F"></stop><stop offset="0.50880" stop-color="#383B3F"></stop><stop offset="0.92375" stop-color="#1F2325"></stop><stop offset="0.92522" stop-color="#1F2225"></stop><stop offset="1.00000" stop-color="#1B1E20"></stop></radialGradient></defs><g transform="matrix(1.00, 0.00, -0.00, -1.00, 0.0, 768.0)"><g><clipPath id="clip0x6000092bcec0"><path d="M 0.0 768.0 L 1024.0 768.0 L 1024.0 0.0 L 0.0 0.0 Z M 0.0 768.0 "></path></clipPath><g clip-path="url(#clip0x6000092bcec0)"><path d="M 0.0 768.0 L 1024.0 768.0 L 1024.0 0.0 L 0.0 0.0 Z M 0.0 768.0 " fill="url(#gradSh1.43)"></path></g></g><text xml:space="preserve" font-family="Helvetica-Light,Helvetica" font-size="80.0" fill="#EEEEEE" transform="matrix(1.00, 0.00, -0.00, -1.00, 163.7, 354.4)">D</text><text xml:space="preserve" font-family="Helvetica-Light,Helvetica" font-size="80.0" fill="#EEEEEE" transform="matrix(1.00, 0.00, -0.00, -1.00, 221.5, 354.4)">i</text><text xml:space="preserve" font-family="Helvetica-Light,Helvetica" font-size="80.0" fill="#EEEEEE" transform="matrix(1.00, 0.00, -0.00, -1.00, 239.2, 354.4)">r</text><text xml:space="preserve" font-family="Helvetica-Light,Helvetica" font-size="80.0" fill="#EEEEEE" transform="matrix(1.00, 0.00, -0.00, -1.00, 264.4, 354.4)">e</text><text xml:space="preserve" font-family="Helvetica-Light,Helvetica" font-size="80.0" fill="#EEEEEE" transform="matrix(1.00, 0.00, -0.00, -1.00, 308.9, 354.4)">c</text><text xml:space="preserve" font-family="Helvetica-Light,Helvetica" font-size="80.0" fill="#EEEEEE" transform="matrix(1.00, 0.00, -0.00, -1.00, 353.4, 354.4)">t</text><text xml:space="preserve" font-family="Helvetica-Light,Helvetica" font-size="80.0" fill="#EEEEEE" transform="matrix(1.00, 0.00, -0.00, -1.00, 375.6, 354.4)">i</text><text xml:space="preserve" font-family="Helvetica-Light,Helvetica" font-size="80.0" fill="#EEEEEE" transform="matrix(1.00, 0.00, -0.00, -1.00, 393.4, 354.4)">v</text><text xml:space="preserve" font-family="Helvetica-Light,Helvetica" font-size="80.0" fill="#EEEEEE" transform="matrix(1.00, 0.00, -0.00, -1.00, 433.4, 354.4)">e</text><text xml:space="preserve" font-family="Helvetica-Light,Helvetica" font-size="80.0" fill="#EEEEEE" transform="matrix(1.00, 0.00, -0.00, -1.00, 477.9, 354.4)">s</text><text xml:space="preserve" font-family="Helvetica-Light,Helvetica" font-size="80.0" fill="#EEEEEE" transform="matrix(1.00, 0.00, -0.00, -1.00, 517.9, 354.4)"> </text><text xml:space="preserve" font-family="Helvetica-Light,Helvetica" font-size="80.0" fill="#EEEEEE" transform="matrix(1.00, 0.00, -0.00, -1.00, 540.1, 354.4)">L</text><text xml:space="preserve" font-family="Helvetica-Light,Helvetica" font-size="80.0" fill="#EEEEEE" transform="matrix(1.00, 0.00, -0.00, -1.00, 584.6, 354.4)">i</text><text xml:space="preserve" font-family="Helvetica-Light,Helvetica" font-size="80.0" fill="#EEEEEE" transform="matrix(1.00, 0.00, -0.00, -1.00, 602.4, 354.4)">f</text><text xml:space="preserve" font-family="Helvetica-Light,Helvetica" font-size="80.0" fill="#EEEEEE" transform="matrix(1.00, 0.00, -0.00, -1.00, 624.6, 354.4)">e</text><text xml:space="preserve" font-family="Helvetica-Light,Helvetica" font-size="80.0" fill="#EEEEEE" transform="matrix(1.00, 0.00, -0.00, -1.00, 669.1, 354.4)">c</text><text xml:space="preserve" font-family="Helvetica-Light,Helvetica" font-size="80.0" fill="#EEEEEE" transform="matrix(1.00, 0.00, -0.00, -1.00, 713.6, 354.4)">y</text><text xml:space="preserve" font-family="Helvetica-Light,Helvetica" font-size="80.0" fill="#EEEEEE" transform="matrix(1.00, 0.00, -0.00, -1.00, 753.6, 354.4)">c</text><text xml:space="preserve" font-family="Helvetica-Light,Helvetica" font-size="80.0" fill="#EEEEEE" transform="matrix(1.00, 0.00, -0.00, -1.00, 798.0, 354.4)">l</text><text xml:space="preserve" font-family="Helvetica-Light,Helvetica" font-size="80.0" fill="#EEEEEE" transform="matrix(1.00, 0.00, -0.00, -1.00, 815.8, 354.4)">e</text></g></svg>