<?xml version="1.0" encoding="UTF-8" standalone="no"?><svg xmlns="http://www.w3.org/2000/svg" xmlns:xlink="http://www.w3.org/1999/xlink" clip-rule="evenodd" stroke-miterlimit="10" viewBox="0 0 1024 768"><desc>SVG generated by Keynote</desc><defs><radialGradient id="gradSh1.39" cx="0.0" cy="0.0" r="100.0" fx="0.0" fy="0.0" gradientUnits="userSpaceOnUse" gradientTransform="matrix(5.13, -3.85, -3.85, -5.13, 512.0, 384.0)"><stop offset="0.00000" stop-color="#565A5F"></stop><stop offset="0.00806" stop-color="#565A5E"></stop><stop offset="0.38196" stop-color="#3F4347"></stop><stop offset="0.38930" stop-color="#3F4346"></stop><stop offset="0.44208" stop-color="#3C3F43"></stop><stop offset="0.44941" stop-color="#3B3F43"></stop><stop offset="0.50073" stop-color="#383C3F"></stop><stop offset="0.50880" stop-color="#383B3F"></stop><stop offset="0.92375" stop-color="#1F2325"></stop><stop offset="0.92522" stop-color="#1F2225"></stop><stop offset="1.00000" stop-color="#1B1E20"></stop></radialGradient></defs><g transform="matrix(1.00, 0.00, -0.00, -1.00, 0.0, 768.0)"><g><clipPath id="clip0x6080074a9fc0"><path d="M 0.0 768.0 L 1024.0 768.0 L 1024.0 0.0 L 0.0 0.0 Z M 0.0 768.0 "></path></clipPath><g clip-path="url(#clip0x6080074a9fc0)"><path d="M 0.0 768.0 L 1024.0 768.0 L 1024.0 0.0 L 0.0 0.0 Z M 0.0 768.0 " fill="url(#gradSh1.39)"></path></g></g><text xml:space="preserve" font-family="Helvetica-Light,Helvetica" font-size="80.0" fill="#EEEEEE" transform="matrix(1.00, 0.00, -0.00, -1.00, 334.9, 618.4)">D</text><text xml:space="preserve" font-family="Helvetica-Light,Helvetica" font-size="80.0" fill="#EEEEEE" transform="matrix(1.00, 0.00, -0.00, -1.00, 392.7, 618.4)">i</text><text xml:space="preserve" font-family="Helvetica-Light,Helvetica" font-size="80.0" fill="#EEEEEE" transform="matrix(1.00, 0.00, -0.00, -1.00, 410.4, 618.4)">r</text><text xml:space="preserve" font-family="Helvetica-Light,Helvetica" font-size="80.0" fill="#EEEEEE" transform="matrix(1.00, 0.00, -0.00, -1.00, 435.6, 618.4)">e</text><text xml:space="preserve" font-family="Helvetica-Light,Helvetica" font-size="80.0" fill="#EEEEEE" transform="matrix(1.00, 0.00, -0.00, -1.00, 480.1, 618.4)">c</text><text xml:space="preserve" font-family="Helvetica-Light,Helvetica" font-size="80.0" fill="#EEEEEE" transform="matrix(1.00, 0.00, -0.00, -1.00, 524.6, 618.4)">t</text><text xml:space="preserve" font-family="Helvetica-Light,Helvetica" font-size="80.0" fill="#EEEEEE" transform="matrix(1.00, 0.00, -0.00, -1.00, 546.8, 618.4)">i</text><text xml:space="preserve" font-family="Helvetica-Light,Helvetica" font-size="80.0" fill="#EEEEEE" transform="matrix(1.00, 0.00, -0.00, -1.00, 564.6, 618.4)">v</text><text xml:space="preserve" font-family="Helvetica-Light,Helvetica" font-size="80.0" fill="#EEEEEE" transform="matrix(1.00, 0.00, -0.00, -1.00, 604.6, 618.4)">e</text><text xml:space="preserve" font-family="Helvetica-Light,Helvetica" font-size="80.0" fill="#EEEEEE" transform="matrix(1.00, 0.00, -0.00, -1.00, 649.1, 618.4)">s</text><text xml:space="preserve" font-family="Helvetica-Light,Helvetica" font-size="60.0" fill="#EEEEEE" transform="matrix(1.00, 0.00, -0.00, -1.00, 200.2, 356.3)">T</text><text xml:space="preserve" font-family="Helvetica-Light,Helvetica" font-size="60.0" fill="#EEEEEE" transform="matrix(1.00, 0.00, -0.00, -1.00, 226.9, 356.3)">e</text><text xml:space="preserve" font-family="Helvetica-Light,Helvetica" font-size="60.0" fill="#EEEEEE" transform="matrix(1.00, 0.00, -0.00, -1.00, 260.3, 356.3)">a</text><text xml:space="preserve" font-family="Helvetica-Light,Helvetica" font-size="60.0" fill="#EEEEEE" transform="matrix(1.00, 0.00, -0.00, -1.00, 293.6, 356.3)">c</text><text xml:space="preserve" font-family="Helvetica-Light,Helvetica" font-size="60.0" fill="#EEEEEE" transform="matrix(1.00, 0.00, -0.00, -1.00, 327.0, 356.3)">h</text><text xml:space="preserve" font-family="Helvetica-Light,Helvetica" font-size="60.0" fill="#EEEEEE" transform="matrix(1.00, 0.00, -0.00, -1.00, 360.4, 356.3)"> </text><text xml:space="preserve" font-family="Helvetica-Light,Helvetica" font-size="60.0" fill="#EEEEEE" transform="matrix(1.00, 0.00, -0.00, -1.00, 377.0, 356.3)">H</text><text xml:space="preserve" font-family="Helvetica-Light,Helvetica" font-size="60.0" fill="#EEEEEE" transform="matrix(1.00, 0.00, -0.00, -1.00, 420.4, 356.3)">T</text><text xml:space="preserve" font-family="Helvetica-Light,Helvetica" font-size="60.0" fill="#EEEEEE" transform="matrix(1.00, 0.00, -0.00, -1.00, 453.7, 356.3)">M</text><text xml:space="preserve" font-family="Helvetica-Light,Helvetica" font-size="60.0" fill="#EEEEEE" transform="matrix(1.00, 0.00, -0.00, -1.00, 503.7, 356.3)">L</text><text xml:space="preserve" font-family="Helvetica-Light,Helvetica" font-size="60.0" fill="#EEEEEE" transform="matrix(1.00, 0.00, -0.00, -1.00, 537.1, 356.3)"> </text><text xml:space="preserve" font-family="Helvetica-Light,Helvetica" font-size="60.0" fill="#EEEEEE" transform="matrix(1.00, 0.00, -0.00, -1.00, 553.7, 356.3)">n</text><text xml:space="preserve" font-family="Helvetica-Light,Helvetica" font-size="60.0" fill="#EEEEEE" transform="matrix(1.00, 0.00, -0.00, -1.00, 587.1, 356.3)">e</text><text xml:space="preserve" font-family="Helvetica-Light,Helvetica" font-size="60.0" fill="#EEEEEE" transform="matrix(1.00, 0.00, -0.00, -1.00, 620.5, 356.3)">w</text><text xml:space="preserve" font-family="Helvetica-Light,Helvetica" font-size="60.0" fill="#EEEEEE" transform="matrix(1.00, 0.00, -0.00, -1.00, 663.8, 356.3)"> </text><text xml:space="preserve" font-family="Helvetica-Light,Helvetica" font-size="60.0" fill="#EEEEEE" transform="matrix(1.00, 0.00, -0.00, -1.00, 680.5, 356.3)">t</text><text xml:space="preserve" font-family="Helvetica-Light,Helvetica" font-size="60.0" fill="#EEEEEE" transform="matrix(1.00, 0.00, -0.00, -1.00, 697.1, 356.3)">r</text><text xml:space="preserve" font-family="Helvetica-Light,Helvetica" font-size="60.0" fill="#EEEEEE" transform="matrix(1.00, 0.00, -0.00, -1.00, 717.1, 356.3)">i</text><text xml:space="preserve" font-family="Helvetica-Light,Helvetica" font-size="60.0" fill="#EEEEEE" transform="matrix(1.00, 0.00, -0.00, -1.00, 730.4, 356.3)">c</text><text xml:space="preserve" font-family="Helvetica-Light,Helvetica" font-size="60.0" fill="#EEEEEE" transform="matrix(1.00, 0.00, -0.00, -1.00, 763.8, 356.3)">k</text><text xml:space="preserve" font-family="Helvetica-Light,Helvetica" font-size="60.0" fill="#EEEEEE" transform="matrix(1.00, 0.00, -0.00, -1.00, 793.8, 356.3)">s</text><text xml:space="preserve" font-family="Helvetica-Light,Helvetica" font-size="60.0" fill="#EEEEEE" transform="matrix(1.00, 0.00, -0.00, -1.00, 823.8, 356.3)"> </text><text xml:space="preserve" font-family="Helvetica-Light,Helvetica" font-size="24.0" fill="#EEEEEE" transform="matrix(1.00, 0.00, -0.00, -1.00, 360.6, 287.0)">W</text><text xml:space="preserve" font-family="Helvetica-Light,Helvetica" font-size="24.0" fill="#EEEEEE" transform="matrix(1.00, 0.00, -0.00, -1.00, 381.9, 287.0)">h</text><text xml:space="preserve" font-family="Helvetica-Light,Helvetica" font-size="24.0" fill="#EEEEEE" transform="matrix(1.00, 0.00, -0.00, -1.00, 395.3, 287.0)">a</text><text xml:space="preserve" font-family="Helvetica-Light,Helvetica" font-size="24.0" fill="#EEEEEE" transform="matrix(1.00, 0.00, -0.00, -1.00, 408.6, 287.0)">t</text><text xml:space="preserve" font-family="Helvetica-Light,Helvetica" font-size="24.0" fill="#EEEEEE" transform="matrix(1.00, 0.00, -0.00, -1.00, 415.3, 287.0)"> </text><text xml:space="preserve" font-family="Helvetica-Light,Helvetica" font-size="24.0" fill="#EEEEEE" transform="matrix(1.00, 0.00, -0.00, -1.00, 422.0, 287.0)">d</text><text xml:space="preserve" font-family="Helvetica-Light,Helvetica" font-size="24.0" fill="#EEEEEE" transform="matrix(1.00, 0.00, -0.00, -1.00, 436.6, 287.0)">o</text><text xml:space="preserve" font-family="Helvetica-Light,Helvetica" font-size="24.0" fill="#EEEEEE" transform="matrix(1.00, 0.00, -0.00, -1.00, 450.0, 287.0)"> </text><text xml:space="preserve" font-family="Helvetica-Light,Helvetica" font-size="24.0" fill="#EEEEEE" transform="matrix(1.00, 0.00, -0.00, -1.00, 456.7, 287.0)">y</text><text xml:space="preserve" font-family="Helvetica-Light,Helvetica" font-size="24.0" fill="#EEEEEE" transform="matrix(1.00, 0.00, -0.00, -1.00, 468.7, 287.0)">o</text><text xml:space="preserve" font-family="Helvetica-Light,Helvetica" font-size="24.0" fill="#EEEEEE" transform="matrix(1.00, 0.00, -0.00, -1.00, 482.0, 287.0)">u</text><text xml:space="preserve" font-family="Helvetica-Light,Helvetica" font-size="24.0" fill="#EEEEEE" transform="matrix(1.00, 0.00, -0.00, -1.00, 495.3, 287.0)"> </text><text xml:space="preserve" font-family="Helvetica-Light,Helvetica" font-size="24.0" fill="#EEEEEE" transform="matrix(1.00, 0.00, -0.00, -1.00, 502.0, 287.0)">m</text><text xml:space="preserve" font-family="Helvetica-Light,Helvetica" font-size="24.0" fill="#EEEEEE" transform="matrix(1.00, 0.00, -0.00, -1.00, 522.0, 287.0)">e</text><text xml:space="preserve" font-family="Helvetica-Light,Helvetica" font-size="24.0" fill="#EEEEEE" transform="matrix(1.00, 0.00, -0.00, -1.00, 535.4, 287.0)">a</text><text xml:space="preserve" font-family="Helvetica-Light,Helvetica" font-size="24.0" fill="#EEEEEE" transform="matrix(1.00, 0.00, -0.00, -1.00, 548.7, 287.0)">n</text><text xml:space="preserve" font-family="Helvetica-Light,Helvetica" font-size="24.0" fill="#EEEEEE" transform="matrix(1.00, 0.00, -0.00, -1.00, 562.0, 287.0)">,</text><text xml:space="preserve" font-family="Helvetica-Light,Helvetica" font-size="24.0" fill="#EEEEEE" transform="matrix(1.00, 0.00, -0.00, -1.00, 568.7, 287.0)"> </text><text xml:space="preserve" font-family="Helvetica-Light,Helvetica" font-size="24.0" fill="#EEEEEE" transform="matrix(1.00, 0.00, -0.00, -1.00, 575.4, 287.0)">d</text><text xml:space="preserve" font-family="Helvetica-Light,Helvetica" font-size="24.0" fill="#EEEEEE" transform="matrix(1.00, 0.00, -0.00, -1.00, 590.0, 287.0)">a</text><text xml:space="preserve" font-family="Helvetica-Light,Helvetica" font-size="24.0" fill="#EEEEEE" transform="matrix(1.00, 0.00, -0.00, -1.00, 603.4, 287.0)">m</text><text xml:space="preserve" font-family="Helvetica-Light,Helvetica" font-size="24.0" fill="#EEEEEE" transform="matrix(1.00, 0.00, -0.00, -1.00, 623.4, 287.0)">n</text><text xml:space="preserve" font-family="Helvetica-Light,Helvetica" font-size="24.0" fill="#EEEEEE" transform="matrix(1.00, 0.00, -0.00, -1.00, 636.7, 287.0)"> </text><text xml:space="preserve" font-family="Helvetica-Light,Helvetica" font-size="24.0" fill="#EEEEEE" transform="matrix(1.00, 0.00, -0.00, -1.00, 643.4, 287.0)">i</text><text xml:space="preserve" font-family="Helvetica-Light,Helvetica" font-size="24.0" fill="#EEEEEE" transform="matrix(1.00, 0.00, -0.00, -1.00, 648.7, 287.0)">t</text><text xml:space="preserve" font-family="Helvetica-Light,Helvetica" font-size="24.0" fill="#EEEEEE" transform="matrix(1.00, 0.00, -0.00, -1.00, 655.4, 287.0)">!</text></g></svg>