<?xml version="1.0" encoding="UTF-8" standalone="no"?><svg xmlns="http://www.w3.org/2000/svg" xmlns:xlink="http://www.w3.org/1999/xlink" clip-rule="evenodd" stroke-miterlimit="10" viewBox="0 0 1024 768"><desc>SVG generated by Keynote</desc><defs><radialGradient id="gradSh1.15" cx="0.0" cy="0.0" r="100.0" fx="0.0" fy="0.0" gradientUnits="userSpaceOnUse" gradientTransform="matrix(5.13, -3.85, -3.85, -5.13, 512.0, 384.0)"><stop offset="0.00000" stop-color="#565A5F"></stop><stop offset="0.00806" stop-color="#565A5E"></stop><stop offset="0.38196" stop-color="#3F4347"></stop><stop offset="0.38930" stop-color="#3F4346"></stop><stop offset="0.44208" stop-color="#3C3F43"></stop><stop offset="0.44941" stop-color="#3B3F43"></stop><stop offset="0.50073" stop-color="#383C3F"></stop><stop offset="0.50880" stop-color="#383B3F"></stop><stop offset="0.92375" stop-color="#1F2325"></stop><stop offset="0.92522" stop-color="#1F2225"></stop><stop offset="1.00000" stop-color="#1B1E20"></stop></radialGradient></defs><g transform="matrix(1.00, 0.00, -0.00, -1.00, 0.0, 768.0)"><g><clipPath id="clip0x6080030ade00"><path d="M 0.0 768.0 L 1024.0 768.0 L 1024.0 0.0 L 0.0 0.0 Z M 0.0 768.0 "></path></clipPath><g clip-path="url(#clip0x6080030ade00)"><path d="M 0.0 768.0 L 1024.0 768.0 L 1024.0 0.0 L 0.0 0.0 Z M 0.0 768.0 " fill="url(#gradSh1.15)"></path></g></g><text xml:space="preserve" font-family="Helvetica-Light,Helvetica" font-size="72.8" fill="#EEEEEE" transform="matrix(1.00, 0.00, -0.00, -1.00, 70.4, 620.7)">S</text><text xml:space="preserve" font-family="Helvetica-Light,Helvetica" font-size="72.8" fill="#EEEEEE" transform="matrix(1.00, 0.00, -0.00, -1.00, 114.8, 620.7)">c</text><text xml:space="preserve" font-family="Helvetica-Light,Helvetica" font-size="72.8" fill="#EEEEEE" transform="matrix(1.00, 0.00, -0.00, -1.00, 155.3, 620.7)">o</text><text xml:space="preserve" font-family="Helvetica-Light,Helvetica" font-size="72.8" fill="#EEEEEE" transform="matrix(1.00, 0.00, -0.00, -1.00, 195.7, 620.7)">p</text><text xml:space="preserve" font-family="Helvetica-Light,Helvetica" font-size="72.8" fill="#EEEEEE" transform="matrix(1.00, 0.00, -0.00, -1.00, 240.2, 620.7)">e</text><text xml:space="preserve" font-family="Helvetica-Light,Helvetica" font-size="72.8" fill="#EEEEEE" transform="matrix(1.00, 0.00, -0.00, -1.00, 280.6, 620.7)">s</text><text xml:space="preserve" font-family="Helvetica-Light,Helvetica" font-size="72.8" fill="#EEEEEE" transform="matrix(1.00, 0.00, -0.00, -1.00, 317.0, 620.7)">:</text><text xml:space="preserve" font-family="Helvetica-Light,Helvetica" font-size="72.8" fill="#EEEEEE" transform="matrix(1.00, 0.00, -0.00, -1.00, 337.2, 620.7)"> </text><text xml:space="preserve" font-family="Helvetica-Light,Helvetica" font-size="72.8" fill="#EEEEEE" transform="matrix(1.00, 0.00, -0.00, -1.00, 357.5, 620.7)">W</text><text xml:space="preserve" font-family="Helvetica-Light,Helvetica" font-size="72.8" fill="#EEEEEE" transform="matrix(1.00, 0.00, -0.00, -1.00, 422.1, 620.7)">h</text><text xml:space="preserve" font-family="Helvetica-Light,Helvetica" font-size="72.8" fill="#EEEEEE" transform="matrix(1.00, 0.00, -0.00, -1.00, 462.6, 620.7)">a</text><text xml:space="preserve" font-family="Helvetica-Light,Helvetica" font-size="72.8" fill="#EEEEEE" transform="matrix(1.00, 0.00, -0.00, -1.00, 503.0, 620.7)">t</text><text xml:space="preserve" font-family="Helvetica-Light,Helvetica" font-size="72.8" fill="#EEEEEE" transform="matrix(1.00, 0.00, -0.00, -1.00, 523.3, 620.7)"> </text><text xml:space="preserve" font-family="Helvetica-Light,Helvetica" font-size="72.8" fill="#EEEEEE" transform="matrix(1.00, 0.00, -0.00, -1.00, 543.5, 620.7)">d</text><text xml:space="preserve" font-family="Helvetica-Light,Helvetica" font-size="72.8" fill="#EEEEEE" transform="matrix(1.00, 0.00, -0.00, -1.00, 587.9, 620.7)">o</text><text xml:space="preserve" font-family="Helvetica-Light,Helvetica" font-size="72.8" fill="#EEEEEE" transform="matrix(1.00, 0.00, -0.00, -1.00, 628.4, 620.7)"> </text><text xml:space="preserve" font-family="Helvetica-Light,Helvetica" font-size="72.8" fill="#EEEEEE" transform="matrix(1.00, 0.00, -0.00, -1.00, 648.6, 620.7)">t</text><text xml:space="preserve" font-family="Helvetica-Light,Helvetica" font-size="72.8" fill="#EEEEEE" transform="matrix(1.00, 0.00, -0.00, -1.00, 668.8, 620.7)">h</text><text xml:space="preserve" font-family="Helvetica-Light,Helvetica" font-size="72.8" fill="#EEEEEE" transform="matrix(1.00, 0.00, -0.00, -1.00, 709.3, 620.7)">e</text><text xml:space="preserve" font-family="Helvetica-Light,Helvetica" font-size="72.8" fill="#EEEEEE" transform="matrix(1.00, 0.00, -0.00, -1.00, 749.7, 620.7)">y</text><text xml:space="preserve" font-family="Helvetica-Light,Helvetica" font-size="72.8" fill="#EEEEEE" transform="matrix(1.00, 0.00, -0.00, -1.00, 786.1, 620.7)"> </text><text xml:space="preserve" font-family="Helvetica-Light,Helvetica" font-size="72.8" fill="#EEEEEE" transform="matrix(1.00, 0.00, -0.00, -1.00, 806.3, 620.7)">d</text><text xml:space="preserve" font-family="Helvetica-Light,Helvetica" font-size="72.8" fill="#EEEEEE" transform="matrix(1.00, 0.00, -0.00, -1.00, 850.8, 620.7)">o</text><text xml:space="preserve" font-family="Helvetica-Light,Helvetica" font-size="72.8" fill="#EEEEEE" transform="matrix(1.00, 0.00, -0.00, -1.00, 891.2, 620.7)">?</text><text xml:space="preserve" font-family="Helvetica-Light,Helvetica" font-size="53.0" fill="#EEEEEE" transform="matrix(1.00, 0.00, -0.00, -1.00, 82.0, 379.2)">D</text><text xml:space="preserve" font-family="Helvetica-Light,Helvetica" font-size="53.0" fill="#EEEEEE" transform="matrix(1.00, 0.00, -0.00, -1.00, 120.3, 379.2)">a</text><text xml:space="preserve" font-family="Helvetica-Light,Helvetica" font-size="53.0" fill="#EEEEEE" transform="matrix(1.00, 0.00, -0.00, -1.00, 149.7, 379.2)">t</text><text xml:space="preserve" font-family="Helvetica-Light,Helvetica" font-size="53.0" fill="#EEEEEE" transform="matrix(1.00, 0.00, -0.00, -1.00, 164.5, 379.2)">a</text><text xml:space="preserve" font-family="Helvetica-Light,Helvetica" font-size="53.0" fill="#EEEEEE" transform="matrix(1.00, 0.00, -0.00, -1.00, 193.9, 379.2)"> </text><text xml:space="preserve" font-family="Helvetica-Light,Helvetica" font-size="53.0" fill="#EEEEEE" transform="matrix(1.00, 0.00, -0.00, -1.00, 208.7, 379.2)">b</text><text xml:space="preserve" font-family="Helvetica-Light,Helvetica" font-size="53.0" fill="#EEEEEE" transform="matrix(1.00, 0.00, -0.00, -1.00, 241.0, 379.2)">i</text><text xml:space="preserve" font-family="Helvetica-Light,Helvetica" font-size="53.0" fill="#EEEEEE" transform="matrix(1.00, 0.00, -0.00, -1.00, 252.8, 379.2)">n</text><text xml:space="preserve" font-family="Helvetica-Light,Helvetica" font-size="53.0" fill="#EEEEEE" transform="matrix(1.00, 0.00, -0.00, -1.00, 282.3, 379.2)">d</text><text xml:space="preserve" font-family="Helvetica-Light,Helvetica" font-size="53.0" fill="#EEEEEE" transform="matrix(1.00, 0.00, -0.00, -1.00, 314.7, 379.2)">i</text><text xml:space="preserve" font-family="Helvetica-Light,Helvetica" font-size="53.0" fill="#EEEEEE" transform="matrix(1.00, 0.00, -0.00, -1.00, 326.4, 379.2)">n</text><text xml:space="preserve" font-family="Helvetica-Light,Helvetica" font-size="53.0" fill="#EEEEEE" transform="matrix(1.00, 0.00, -0.00, -1.00, 355.9, 379.2)">g</text><text xml:space="preserve" font-family="Helvetica-Light,Helvetica" font-size="53.0" fill="#EEEEEE" transform="matrix(1.00, 0.00, -0.00, -1.00, 388.3, 379.2)"> </text><text xml:space="preserve" font-family="Helvetica-Light,Helvetica" font-size="53.0" fill="#EEEEEE" transform="matrix(1.00, 0.00, -0.00, -1.00, 403.0, 379.2)">b</text><text xml:space="preserve" font-family="Helvetica-Light,Helvetica" font-size="53.0" fill="#EEEEEE" transform="matrix(1.00, 0.00, -0.00, -1.00, 435.4, 379.2)">e</text><text xml:space="preserve" font-family="Helvetica-Light,Helvetica" font-size="53.0" fill="#EEEEEE" transform="matrix(1.00, 0.00, -0.00, -1.00, 464.9, 379.2)">t</text><text xml:space="preserve" font-family="Helvetica-Light,Helvetica" font-size="53.0" fill="#EEEEEE" transform="matrix(1.00, 0.00, -0.00, -1.00, 479.6, 379.2)">w</text><text xml:space="preserve" font-family="Helvetica-Light,Helvetica" font-size="53.0" fill="#EEEEEE" transform="matrix(1.00, 0.00, -0.00, -1.00, 517.9, 379.2)">e</text><text xml:space="preserve" font-family="Helvetica-Light,Helvetica" font-size="53.0" fill="#EEEEEE" transform="matrix(1.00, 0.00, -0.00, -1.00, 547.3, 379.2)">e</text><text xml:space="preserve" font-family="Helvetica-Light,Helvetica" font-size="53.0" fill="#EEEEEE" transform="matrix(1.00, 0.00, -0.00, -1.00, 576.8, 379.2)">n</text><text xml:space="preserve" font-family="Helvetica-Light,Helvetica" font-size="53.0" fill="#EEEEEE" transform="matrix(1.00, 0.00, -0.00, -1.00, 606.3, 379.2)"> </text><text xml:space="preserve" font-family="Helvetica-Light,Helvetica" font-size="53.0" fill="#EEEEEE" transform="matrix(1.00, 0.00, -0.00, -1.00, 621.0, 379.2)">J</text><text xml:space="preserve" font-family="Helvetica-Light,Helvetica" font-size="53.0" fill="#EEEEEE" transform="matrix(1.00, 0.00, -0.00, -1.00, 647.5, 379.2)">S</text><text xml:space="preserve" font-family="Helvetica-Light,Helvetica" font-size="53.0" fill="#EEEEEE" transform="matrix(1.00, 0.00, -0.00, -1.00, 679.9, 379.2)"> </text><text xml:space="preserve" font-family="Helvetica-Light,Helvetica" font-size="53.0" fill="#EEEEEE" transform="matrix(1.00, 0.00, -0.00, -1.00, 694.6, 379.2)">a</text><text xml:space="preserve" font-family="Helvetica-Light,Helvetica" font-size="53.0" fill="#EEEEEE" transform="matrix(1.00, 0.00, -0.00, -1.00, 724.1, 379.2)">n</text><text xml:space="preserve" font-family="Helvetica-Light,Helvetica" font-size="53.0" fill="#EEEEEE" transform="matrix(1.00, 0.00, -0.00, -1.00, 753.5, 379.2)">d</text><text xml:space="preserve" font-family="Helvetica-Light,Helvetica" font-size="53.0" fill="#EEEEEE" transform="matrix(1.00, 0.00, -0.00, -1.00, 785.9, 379.2)"> </text><text xml:space="preserve" font-family="Helvetica-Light,Helvetica" font-size="53.0" fill="#EEEEEE" transform="matrix(1.00, 0.00, -0.00, -1.00, 800.7, 379.2)">H</text><text xml:space="preserve" font-family="Helvetica-Light,Helvetica" font-size="53.0" fill="#EEEEEE" transform="matrix(1.00, 0.00, -0.00, -1.00, 838.9, 379.2)">T</text><text xml:space="preserve" font-family="Helvetica-Light,Helvetica" font-size="53.0" fill="#EEEEEE" transform="matrix(1.00, 0.00, -0.00, -1.00, 868.4, 379.2)">M</text><text xml:space="preserve" font-family="Helvetica-Light,Helvetica" font-size="53.0" fill="#EEEEEE" transform="matrix(1.00, 0.00, -0.00, -1.00, 912.5, 379.2)">L</text></g></svg>