<?xml version="1.0" encoding="UTF-8" standalone="no"?><svg xmlns="http://www.w3.org/2000/svg" xmlns:xlink="http://www.w3.org/1999/xlink" clip-rule="evenodd" stroke-miterlimit="10" viewBox="0 0 1024 768"><desc>SVG generated by Keynote</desc><defs><radialGradient id="gradSh1.35" cx="0.0" cy="0.0" r="100.0" fx="0.0" fy="0.0" gradientUnits="userSpaceOnUse" gradientTransform="matrix(5.13, -3.85, -3.85, -5.13, 512.0, 384.0)"><stop offset="0.00000" stop-color="#565A5F"></stop><stop offset="0.00806" stop-color="#565A5E"></stop><stop offset="0.38196" stop-color="#3F4347"></stop><stop offset="0.38930" stop-color="#3F4346"></stop><stop offset="0.44208" stop-color="#3C3F43"></stop><stop offset="0.44941" stop-color="#3B3F43"></stop><stop offset="0.50073" stop-color="#383C3F"></stop><stop offset="0.50880" stop-color="#383B3F"></stop><stop offset="0.92375" stop-color="#1F2325"></stop><stop offset="0.92522" stop-color="#1F2225"></stop><stop offset="1.00000" stop-color="#1B1E20"></stop></radialGradient></defs><g transform="matrix(1.00, 0.00, -0.00, -1.00, 0.0, 768.0)"><g><clipPath id="clip0x600007cb5a20"><path d="M 0.0 768.0 L 1024.0 768.0 L 1024.0 0.0 L 0.0 0.0 Z M 0.0 768.0 "></path></clipPath><g clip-path="url(#clip0x600007cb5a20)"><path d="M 0.0 768.0 L 1024.0 768.0 L 1024.0 0.0 L 0.0 0.0 Z M 0.0 768.0 " fill="url(#gradSh1.35)"></path></g></g><text xml:space="preserve" font-family="Helvetica-Light,Helvetica" font-size="80.0" fill="#EEEEEE" transform="matrix(1.00, 0.00, -0.00, -1.00, 278.6, 618.4)">D</text><text xml:space="preserve" font-family="Helvetica-Light,Helvetica" font-size="80.0" fill="#EEEEEE" transform="matrix(1.00, 0.00, -0.00, -1.00, 336.4, 618.4)">I</text><text xml:space="preserve" font-family="Helvetica-Light,Helvetica" font-size="80.0" fill="#EEEEEE" transform="matrix(1.00, 0.00, -0.00, -1.00, 358.6, 618.4)"> </text><text xml:space="preserve" font-family="Helvetica-Light,Helvetica" font-size="80.0" fill="#EEEEEE" transform="matrix(1.00, 0.00, -0.00, -1.00, 380.8, 618.4)">i</text><text xml:space="preserve" font-family="Helvetica-Light,Helvetica" font-size="80.0" fill="#EEEEEE" transform="matrix(1.00, 0.00, -0.00, -1.00, 398.6, 618.4)">n</text><text xml:space="preserve" font-family="Helvetica-Light,Helvetica" font-size="80.0" fill="#EEEEEE" transform="matrix(1.00, 0.00, -0.00, -1.00, 443.1, 618.4)"> </text><text xml:space="preserve" font-family="Helvetica-Light,Helvetica" font-size="80.0" fill="#EEEEEE" transform="matrix(1.00, 0.00, -0.00, -1.00, 465.3, 618.4)">A</text><text xml:space="preserve" font-family="Helvetica-Light,Helvetica" font-size="80.0" fill="#EEEEEE" transform="matrix(1.00, 0.00, -0.00, -1.00, 518.7, 618.4)">n</text><text xml:space="preserve" font-family="Helvetica-Light,Helvetica" font-size="80.0" fill="#EEEEEE" transform="matrix(1.00, 0.00, -0.00, -1.00, 563.2, 618.4)">g</text><text xml:space="preserve" font-family="Helvetica-Light,Helvetica" font-size="80.0" fill="#EEEEEE" transform="matrix(1.00, 0.00, -0.00, -1.00, 612.0, 618.4)">u</text><text xml:space="preserve" font-family="Helvetica-Light,Helvetica" font-size="80.0" fill="#EEEEEE" transform="matrix(1.00, 0.00, -0.00, -1.00, 656.5, 618.4)">l</text><text xml:space="preserve" font-family="Helvetica-Light,Helvetica" font-size="80.0" fill="#EEEEEE" transform="matrix(1.00, 0.00, -0.00, -1.00, 674.3, 618.4)">a</text><text xml:space="preserve" font-family="Helvetica-Light,Helvetica" font-size="80.0" fill="#EEEEEE" transform="matrix(1.00, 0.00, -0.00, -1.00, 718.8, 618.4)">r</text><text xml:space="preserve" font-family="Helvetica-Light,Helvetica" font-size="27.0" fill="#EEEEEE" transform="matrix(1.00, 0.00, -0.00, -1.00, 78.0, 527.7)">•</text><text xml:space="preserve" font-family="Helvetica-Light,Helvetica" font-size="36.0" fill="#EEEEEE" transform="matrix(1.00, 0.00, -0.00, -1.00, 113.0, 524.3)">M</text><text xml:space="preserve" font-family="Helvetica-Light,Helvetica" font-size="36.0" fill="#EEEEEE" transform="matrix(1.00, 0.00, -0.00, -1.00, 143.0, 524.3)">o</text><text xml:space="preserve" font-family="Helvetica-Light,Helvetica" font-size="36.0" fill="#EEEEEE" transform="matrix(1.00, 0.00, -0.00, -1.00, 163.0, 524.3)">d</text><text xml:space="preserve" font-family="Helvetica-Light,Helvetica" font-size="36.0" fill="#EEEEEE" transform="matrix(1.00, 0.00, -0.00, -1.00, 185.0, 524.3)">u</text><text xml:space="preserve" font-family="Helvetica-Light,Helvetica" font-size="36.0" fill="#EEEEEE" transform="matrix(1.00, 0.00, -0.00, -1.00, 205.0, 524.3)">l</text><text xml:space="preserve" font-family="Helvetica-Light,Helvetica" font-size="36.0" fill="#EEEEEE" transform="matrix(1.00, 0.00, -0.00, -1.00, 213.0, 524.3)">e</text><text xml:space="preserve" font-family="Helvetica-Light,Helvetica" font-size="36.0" fill="#EEEEEE" transform="matrix(1.00, 0.00, -0.00, -1.00, 233.0, 524.3)">s</text><text xml:space="preserve" font-family="Helvetica-Light,Helvetica" font-size="36.0" fill="#EEEEEE" transform="matrix(1.00, 0.00, -0.00, -1.00, 251.0, 524.3)">,</text><text xml:space="preserve" font-family="Helvetica-Light,Helvetica" font-size="36.0" fill="#EEEEEE" transform="matrix(1.00, 0.00, -0.00, -1.00, 261.0, 524.3)"> </text><text xml:space="preserve" font-family="Helvetica-Light,Helvetica" font-size="36.0" fill="#EEEEEE" transform="matrix(1.00, 0.00, -0.00, -1.00, 271.0, 524.3)">e</text><text xml:space="preserve" font-family="Helvetica-Light,Helvetica" font-size="36.0" fill="#EEEEEE" transform="matrix(1.00, 0.00, -0.00, -1.00, 291.1, 524.3)">x</text><text xml:space="preserve" font-family="Helvetica-Light,Helvetica" font-size="36.0" fill="#EEEEEE" transform="matrix(1.00, 0.00, -0.00, -1.00, 309.1, 524.3)">a</text><text xml:space="preserve" font-family="Helvetica-Light,Helvetica" font-size="36.0" fill="#EEEEEE" transform="matrix(1.00, 0.00, -0.00, -1.00, 329.1, 524.3)">m</text><text xml:space="preserve" font-family="Helvetica-Light,Helvetica" font-size="36.0" fill="#EEEEEE" transform="matrix(1.00, 0.00, -0.00, -1.00, 359.1, 524.3)">p</text><text xml:space="preserve" font-family="Helvetica-Light,Helvetica" font-size="36.0" fill="#EEEEEE" transform="matrix(1.00, 0.00, -0.00, -1.00, 381.1, 524.3)">l</text><text xml:space="preserve" font-family="Helvetica-Light,Helvetica" font-size="36.0" fill="#EEEEEE" transform="matrix(1.00, 0.00, -0.00, -1.00, 389.0, 524.3)">e</text><text xml:space="preserve" font-family="Helvetica-Light,Helvetica" font-size="36.0" fill="#EEEEEE" transform="matrix(1.00, 0.00, -0.00, -1.00, 409.1, 524.3)">s</text><text xml:space="preserve" font-family="Helvetica-Light,Helvetica" font-size="36.0" fill="#EEEEEE" transform="matrix(1.00, 0.00, -0.00, -1.00, 427.1, 524.3)">:</text><text xml:space="preserve" font-family="Helvetica-Light,Helvetica" font-size="36.0" fill="#EEEEEE" transform="matrix(1.00, 0.00, -0.00, -1.00, 437.1, 524.3)"> </text><text xml:space="preserve" font-family="Helvetica-Light,Helvetica" font-size="27.0" fill="#EEEEEE" transform="matrix(1.00, 0.00, -0.00, -1.00, 113.0, 455.7)">•</text><text xml:space="preserve" font-family="Helvetica-Light,Helvetica" font-size="36.0" fill="#EEEEEE" transform="matrix(1.00, 0.00, -0.00, -1.00, 148.0, 452.3)">n</text><text xml:space="preserve" font-family="Helvetica-Light,Helvetica" font-size="36.0" fill="#EEEEEE" transform="matrix(1.00, 0.00, -0.00, -1.00, 168.0, 452.3)">g</text><text xml:space="preserve" font-family="Helvetica-Light,Helvetica" font-size="36.0" fill="#EEEEEE" transform="matrix(1.00, 0.00, -0.00, -1.00, 190.0, 452.3)">A</text><text xml:space="preserve" font-family="Helvetica-Light,Helvetica" font-size="36.0" fill="#EEEEEE" transform="matrix(1.00, 0.00, -0.00, -1.00, 214.0, 452.3)">n</text><text xml:space="preserve" font-family="Helvetica-Light,Helvetica" font-size="36.0" fill="#EEEEEE" transform="matrix(1.00, 0.00, -0.00, -1.00, 234.0, 452.3)">i</text><text xml:space="preserve" font-family="Helvetica-Light,Helvetica" font-size="36.0" fill="#EEEEEE" transform="matrix(1.00, 0.00, -0.00, -1.00, 242.0, 452.3)">m</text><text xml:space="preserve" font-family="Helvetica-Light,Helvetica" font-size="36.0" fill="#EEEEEE" transform="matrix(1.00, 0.00, -0.00, -1.00, 272.0, 452.3)">a</text><text xml:space="preserve" font-family="Helvetica-Light,Helvetica" font-size="36.0" fill="#EEEEEE" transform="matrix(1.00, 0.00, -0.00, -1.00, 292.0, 452.3)">t</text><text xml:space="preserve" font-family="Helvetica-Light,Helvetica" font-size="36.0" fill="#EEEEEE" transform="matrix(1.00, 0.00, -0.00, -1.00, 302.0, 452.3)">e</text><text xml:space="preserve" font-family="Helvetica-Light,Helvetica" font-size="36.0" fill="#EEEEEE" transform="matrix(1.00, 0.00, -0.00, -1.00, 322.1, 452.3)"> </text><text xml:space="preserve" font-family="Helvetica-Light,Helvetica" font-size="27.0" fill="#EEEEEE" transform="matrix(1.00, 0.00, -0.00, -1.00, 113.0, 383.7)">•</text><text xml:space="preserve" font-family="Helvetica-Light,Helvetica" font-size="36.0" fill="#EEEEEE" transform="matrix(1.00, 0.00, -0.00, -1.00, 148.0, 380.3)">u</text><text xml:space="preserve" font-family="Helvetica-Light,Helvetica" font-size="36.0" fill="#EEEEEE" transform="matrix(1.00, 0.00, -0.00, -1.00, 168.0, 380.3)">i</text><text xml:space="preserve" font-family="Helvetica-Light,Helvetica" font-size="36.0" fill="#EEEEEE" transform="matrix(1.00, 0.00, -0.00, -1.00, 176.0, 380.3)">R</text><text xml:space="preserve" font-family="Helvetica-Light,Helvetica" font-size="36.0" fill="#EEEEEE" transform="matrix(1.00, 0.00, -0.00, -1.00, 200.0, 380.3)">o</text><text xml:space="preserve" font-family="Helvetica-Light,Helvetica" font-size="36.0" fill="#EEEEEE" transform="matrix(1.00, 0.00, -0.00, -1.00, 220.0, 380.3)">u</text><text xml:space="preserve" font-family="Helvetica-Light,Helvetica" font-size="36.0" fill="#EEEEEE" transform="matrix(1.00, 0.00, -0.00, -1.00, 240.1, 380.3)">t</text><text xml:space="preserve" font-family="Helvetica-Light,Helvetica" font-size="36.0" fill="#EEEEEE" transform="matrix(1.00, 0.00, -0.00, -1.00, 250.1, 380.3)">e</text><text xml:space="preserve" font-family="Helvetica-Light,Helvetica" font-size="36.0" fill="#EEEEEE" transform="matrix(1.00, 0.00, -0.00, -1.00, 270.1, 380.3)">r</text><text xml:space="preserve" font-family="Helvetica-Light,Helvetica" font-size="36.0" fill="#EEEEEE" transform="matrix(1.00, 0.00, -0.00, -1.00, 282.1, 380.3)"> </text><text xml:space="preserve" font-family="Helvetica-Light,Helvetica" font-size="27.0" fill="#EEEEEE" transform="matrix(1.00, 0.00, -0.00, -1.00, 78.0, 311.7)">•</text><text xml:space="preserve" font-family="Helvetica-Light,Helvetica" font-size="36.0" fill="#EEEEEE" transform="matrix(1.00, 0.00, -0.00, -1.00, 113.0, 308.3)">S</text><text xml:space="preserve" font-family="Helvetica-Light,Helvetica" font-size="36.0" fill="#EEEEEE" transform="matrix(1.00, 0.00, -0.00, -1.00, 135.0, 308.3)">e</text><text xml:space="preserve" font-family="Helvetica-Light,Helvetica" font-size="36.0" fill="#EEEEEE" transform="matrix(1.00, 0.00, -0.00, -1.00, 155.0, 308.3)">r</text><text xml:space="preserve" font-family="Helvetica-Light,Helvetica" font-size="36.0" fill="#EEEEEE" transform="matrix(1.00, 0.00, -0.00, -1.00, 167.0, 308.3)">v</text><text xml:space="preserve" font-family="Helvetica-Light,Helvetica" font-size="36.0" fill="#EEEEEE" transform="matrix(1.00, 0.00, -0.00, -1.00, 185.0, 308.3)">i</text><text xml:space="preserve" font-family="Helvetica-Light,Helvetica" font-size="36.0" fill="#EEEEEE" transform="matrix(1.00, 0.00, -0.00, -1.00, 193.0, 308.3)">c</text><text xml:space="preserve" font-family="Helvetica-Light,Helvetica" font-size="36.0" fill="#EEEEEE" transform="matrix(1.00, 0.00, -0.00, -1.00, 213.0, 308.3)">e</text><text xml:space="preserve" font-family="Helvetica-Light,Helvetica" font-size="36.0" fill="#EEEEEE" transform="matrix(1.00, 0.00, -0.00, -1.00, 233.0, 308.3)">s</text><text xml:space="preserve" font-family="Helvetica-Light,Helvetica" font-size="36.0" fill="#EEEEEE" transform="matrix(1.00, 0.00, -0.00, -1.00, 251.0, 308.3)">,</text><text xml:space="preserve" font-family="Helvetica-Light,Helvetica" font-size="36.0" fill="#EEEEEE" transform="matrix(1.00, 0.00, -0.00, -1.00, 261.0, 308.3)"> </text><text xml:space="preserve" font-family="Helvetica-Light,Helvetica" font-size="36.0" fill="#EEEEEE" transform="matrix(1.00, 0.00, -0.00, -1.00, 271.0, 308.3)">e</text><text xml:space="preserve" font-family="Helvetica-Light,Helvetica" font-size="36.0" fill="#EEEEEE" transform="matrix(1.00, 0.00, -0.00, -1.00, 291.1, 308.3)">x</text><text xml:space="preserve" font-family="Helvetica-Light,Helvetica" font-size="36.0" fill="#EEEEEE" transform="matrix(1.00, 0.00, -0.00, -1.00, 309.1, 308.3)">a</text><text xml:space="preserve" font-family="Helvetica-Light,Helvetica" font-size="36.0" fill="#EEEEEE" transform="matrix(1.00, 0.00, -0.00, -1.00, 329.1, 308.3)">m</text><text xml:space="preserve" font-family="Helvetica-Light,Helvetica" font-size="36.0" fill="#EEEEEE" transform="matrix(1.00, 0.00, -0.00, -1.00, 359.1, 308.3)">p</text><text xml:space="preserve" font-family="Helvetica-Light,Helvetica" font-size="36.0" fill="#EEEEEE" transform="matrix(1.00, 0.00, -0.00, -1.00, 381.1, 308.3)">l</text><text xml:space="preserve" font-family="Helvetica-Light,Helvetica" font-size="36.0" fill="#EEEEEE" transform="matrix(1.00, 0.00, -0.00, -1.00, 389.0, 308.3)">e</text><text xml:space="preserve" font-family="Helvetica-Light,Helvetica" font-size="36.0" fill="#EEEEEE" transform="matrix(1.00, 0.00, -0.00, -1.00, 409.1, 308.3)">s</text><text xml:space="preserve" font-family="Helvetica-Light,Helvetica" font-size="36.0" fill="#EEEEEE" transform="matrix(1.00, 0.00, -0.00, -1.00, 427.1, 308.3)">:</text><text xml:space="preserve" font-family="Helvetica-Light,Helvetica" font-size="36.0" fill="#EEEEEE" transform="matrix(1.00, 0.00, -0.00, -1.00, 437.1, 308.3)"> </text><text xml:space="preserve" font-family="Helvetica-Light,Helvetica" font-size="27.0" fill="#EEEEEE" transform="matrix(1.00, 0.00, -0.00, -1.00, 113.0, 239.7)">•</text><text xml:space="preserve" font-family="Helvetica-Light,Helvetica" font-size="36.0" fill="#EEEEEE" transform="matrix(1.00, 0.00, -0.00, -1.00, 148.0, 236.3)">$</text><text xml:space="preserve" font-family="Helvetica-Light,Helvetica" font-size="36.0" fill="#EEEEEE" transform="matrix(1.00, 0.00, -0.00, -1.00, 168.0, 236.3)">h</text><text xml:space="preserve" font-family="Helvetica-Light,Helvetica" font-size="36.0" fill="#EEEEEE" transform="matrix(1.00, 0.00, -0.00, -1.00, 188.0, 236.3)">t</text><text xml:space="preserve" font-family="Helvetica-Light,Helvetica" font-size="36.0" fill="#EEEEEE" transform="matrix(1.00, 0.00, -0.00, -1.00, 198.0, 236.3)">t</text><text xml:space="preserve" font-family="Helvetica-Light,Helvetica" font-size="36.0" fill="#EEEEEE" transform="matrix(1.00, 0.00, -0.00, -1.00, 208.0, 236.3)">p</text><text xml:space="preserve" font-family="Helvetica-Light,Helvetica" font-size="36.0" fill="#EEEEEE" transform="matrix(1.00, 0.00, -0.00, -1.00, 230.0, 236.3)"> </text><text xml:space="preserve" font-family="Helvetica-Light,Helvetica" font-size="27.0" fill="#EEEEEE" transform="matrix(1.00, 0.00, -0.00, -1.00, 113.0, 167.7)">•</text><text xml:space="preserve" font-family="Helvetica-Light,Helvetica" font-size="36.0" fill="#EEEEEE" transform="matrix(1.00, 0.00, -0.00, -1.00, 148.0, 164.3)">$</text><text xml:space="preserve" font-family="Helvetica-Light,Helvetica" font-size="36.0" fill="#EEEEEE" transform="matrix(1.00, 0.00, -0.00, -1.00, 168.0, 164.3)">t</text><text xml:space="preserve" font-family="Helvetica-Light,Helvetica" font-size="36.0" fill="#EEEEEE" transform="matrix(1.00, 0.00, -0.00, -1.00, 178.0, 164.3)">r</text><text xml:space="preserve" font-family="Helvetica-Light,Helvetica" font-size="36.0" fill="#EEEEEE" transform="matrix(1.00, 0.00, -0.00, -1.00, 190.0, 164.3)">a</text><text xml:space="preserve" font-family="Helvetica-Light,Helvetica" font-size="36.0" fill="#EEEEEE" transform="matrix(1.00, 0.00, -0.00, -1.00, 210.0, 164.3)">n</text><text xml:space="preserve" font-family="Helvetica-Light,Helvetica" font-size="36.0" fill="#EEEEEE" transform="matrix(1.00, 0.00, -0.00, -1.00, 230.0, 164.3)">s</text><text xml:space="preserve" font-family="Helvetica-Light,Helvetica" font-size="36.0" fill="#EEEEEE" transform="matrix(1.00, 0.00, -0.00, -1.00, 248.0, 164.3)">l</text><text xml:space="preserve" font-family="Helvetica-Light,Helvetica" font-size="36.0" fill="#EEEEEE" transform="matrix(1.00, 0.00, -0.00, -1.00, 256.0, 164.3)">a</text><text xml:space="preserve" font-family="Helvetica-Light,Helvetica" font-size="36.0" fill="#EEEEEE" transform="matrix(1.00, 0.00, -0.00, -1.00, 276.1, 164.3)">t</text><text xml:space="preserve" font-family="Helvetica-Light,Helvetica" font-size="36.0" fill="#EEEEEE" transform="matrix(1.00, 0.00, -0.00, -1.00, 286.1, 164.3)">e</text><text xml:space="preserve" font-family="Helvetica-Light,Helvetica" font-size="36.0" fill="#EEEEEE" transform="matrix(1.00, 0.00, -0.00, -1.00, 306.1, 164.3)"> </text><text xml:space="preserve" font-family="Helvetica-Light,Helvetica" font-size="27.0" fill="#EEEEEE" transform="matrix(1.00, 0.00, -0.00, -1.00, 78.0, 95.7)">•</text><text xml:space="preserve" font-family="Helvetica-Light,Helvetica" font-size="36.0" fill="#EEEEEE" transform="matrix(1.00, 0.00, -0.00, -1.00, 113.0, 92.3)">C</text><text xml:space="preserve" font-family="Helvetica-Light,Helvetica" font-size="36.0" fill="#EEEEEE" transform="matrix(1.00, 0.00, -0.00, -1.00, 139.0, 92.3)">h</text><text xml:space="preserve" font-family="Helvetica-Light,Helvetica" font-size="36.0" fill="#EEEEEE" transform="matrix(1.00, 0.00, -0.00, -1.00, 159.0, 92.3)">e</text><text xml:space="preserve" font-family="Helvetica-Light,Helvetica" font-size="36.0" fill="#EEEEEE" transform="matrix(1.00, 0.00, -0.00, -1.00, 179.0, 92.3)">c</text><text xml:space="preserve" font-family="Helvetica-Light,Helvetica" font-size="36.0" fill="#EEEEEE" transform="matrix(1.00, 0.00, -0.00, -1.00, 199.0, 92.3)">k</text><text xml:space="preserve" font-family="Helvetica-Light,Helvetica" font-size="36.0" fill="#EEEEEE" transform="matrix(1.00, 0.00, -0.00, -1.00, 217.0, 92.3)"> </text><text xml:space="preserve" font-family="Helvetica-Light,Helvetica" font-size="36.0" fill="#EEEEEE" transform="matrix(1.00, 0.00, -0.00, -1.00, 227.0, 92.3)">t</text><text xml:space="preserve" font-family="Helvetica-Light,Helvetica" font-size="36.0" fill="#EEEEEE" transform="matrix(1.00, 0.00, -0.00, -1.00, 237.1, 92.3)">h</text><text xml:space="preserve" font-family="Helvetica-Light,Helvetica" font-size="36.0" fill="#EEEEEE" transform="matrix(1.00, 0.00, -0.00, -1.00, 257.1, 92.3)">e</text><text xml:space="preserve" font-family="Helvetica-Light,Helvetica" font-size="36.0" fill="#EEEEEE" transform="matrix(1.00, 0.00, -0.00, -1.00, 277.1, 92.3)"> </text><text xml:space="preserve" font-family="Helvetica-Light,Helvetica" font-size="36.0" fill="#EEEEEE" transform="matrix(1.00, 0.00, -0.00, -1.00, 287.1, 92.3)">d</text><text xml:space="preserve" font-family="Helvetica-Light,Helvetica" font-size="36.0" fill="#EEEEEE" transform="matrix(1.00, 0.00, -0.00, -1.00, 309.1, 92.3)">o</text><text xml:space="preserve" font-family="Helvetica-Light,Helvetica" font-size="36.0" fill="#EEEEEE" transform="matrix(1.00, 0.00, -0.00, -1.00, 329.1, 92.3)">c</text><text xml:space="preserve" font-family="Helvetica-Light,Helvetica" font-size="36.0" fill="#EEEEEE" transform="matrix(1.00, 0.00, -0.00, -1.00, 349.1, 92.3)">s</text><text xml:space="preserve" font-family="Helvetica-Light,Helvetica" font-size="36.0" fill="#EEEEEE" transform="matrix(1.00, 0.00, -0.00, -1.00, 367.1, 92.3)">…</text><g><clipPath id="clip0x6000082b8900"><path d="M 112.0 87.7 L 367.1 87.7 L 367.1 91.5 L 112.0 91.5 Z M 112.0 87.7 "></path></clipPath><g clip-path="url(#clip0x6000082b8900)"><path d="M 39.0 473.4 L 293.1 473.4 " fill="none" stroke="#EEEEEE" stroke-width="1.80" transform="matrix(1.00, 0.00, 0.00, -1.00, 74.0, 563.0)"></path></g></g></g></svg>