<?xml version="1.0" encoding="UTF-8" standalone="no"?><svg xmlns="http://www.w3.org/2000/svg" xmlns:xlink="http://www.w3.org/1999/xlink" clip-rule="evenodd" stroke-miterlimit="10" viewBox="0 0 1024 768"><desc>SVG generated by Keynote</desc><defs><radialGradient id="gradSh1.5" cx="0.0" cy="0.0" r="100.0" fx="0.0" fy="0.0" gradientUnits="userSpaceOnUse" gradientTransform="matrix(5.13, -3.85, -3.85, -5.13, 512.0, 384.0)"><stop offset="0.00000" stop-color="#565A5F"></stop><stop offset="0.00806" stop-color="#565A5E"></stop><stop offset="0.38196" stop-color="#3F4347"></stop><stop offset="0.38930" stop-color="#3F4346"></stop><stop offset="0.44208" stop-color="#3C3F43"></stop><stop offset="0.44941" stop-color="#3B3F43"></stop><stop offset="0.50073" stop-color="#383C3F"></stop><stop offset="0.50880" stop-color="#383B3F"></stop><stop offset="0.92375" stop-color="#1F2325"></stop><stop offset="0.92522" stop-color="#1F2225"></stop><stop offset="1.00000" stop-color="#1B1E20"></stop></radialGradient></defs><g transform="matrix(1.00, 0.00, -0.00, -1.00, 0.0, 768.0)"><g><clipPath id="clip0x6000016a8760"><path d="M 0.0 768.0 L 1024.0 768.0 L 1024.0 0.0 L 0.0 0.0 Z M 0.0 768.0 "></path></clipPath><g clip-path="url(#clip0x6000016a8760)"><path d="M 0.0 768.0 L 1024.0 768.0 L 1024.0 0.0 L 0.0 0.0 Z M 0.0 768.0 " fill="url(#gradSh1.5)"></path></g></g><text xml:space="preserve" font-family="Helvetica-Light,Helvetica" font-size="80.0" fill="#EEEEEE" transform="matrix(1.00, 0.00, -0.00, -1.00, 358.6, 622.4)">T</text><text xml:space="preserve" font-family="Helvetica-Light,Helvetica" font-size="80.0" fill="#EEEEEE" transform="matrix(1.00, 0.00, -0.00, -1.00, 403.1, 622.4)">h</text><text xml:space="preserve" font-family="Helvetica-Light,Helvetica" font-size="80.0" fill="#EEEEEE" transform="matrix(1.00, 0.00, -0.00, -1.00, 447.6, 622.4)">i</text><text xml:space="preserve" font-family="Helvetica-Light,Helvetica" font-size="80.0" fill="#EEEEEE" transform="matrix(1.00, 0.00, -0.00, -1.00, 465.3, 622.4)">s</text><text xml:space="preserve" font-family="Helvetica-Light,Helvetica" font-size="80.0" fill="#EEEEEE" transform="matrix(1.00, 0.00, -0.00, -1.00, 505.3, 622.4)"> </text><text xml:space="preserve" font-family="Helvetica-Light,Helvetica" font-size="80.0" fill="#EEEEEE" transform="matrix(1.00, 0.00, -0.00, -1.00, 527.6, 622.4)">T</text><text xml:space="preserve" font-family="Helvetica-Light,Helvetica" font-size="80.0" fill="#EEEEEE" transform="matrix(1.00, 0.00, -0.00, -1.00, 563.2, 622.4)">a</text><text xml:space="preserve" font-family="Helvetica-Light,Helvetica" font-size="80.0" fill="#EEEEEE" transform="matrix(1.00, 0.00, -0.00, -1.00, 607.6, 622.4)">l</text><text xml:space="preserve" font-family="Helvetica-Light,Helvetica" font-size="80.0" fill="#EEEEEE" transform="matrix(1.00, 0.00, -0.00, -1.00, 625.4, 622.4)">k</text><text xml:space="preserve" font-family="Helvetica-Light,Helvetica" font-size="28.0" fill="#EEEEEE" transform="matrix(1.00, 0.00, -0.00, -1.00, 79.0, 531.4)">1</text><text xml:space="preserve" font-family="Helvetica-Light,Helvetica" font-size="28.0" fill="#EEEEEE" transform="matrix(1.00, 0.00, -0.00, -1.00, 94.6, 531.4)">.</text><text xml:space="preserve" font-family="Helvetica-Light,Helvetica" font-size="28.0" fill="#EEEEEE" transform="matrix(1.00, 0.00, -0.00, -1.00, 117.9, 531.4)">I</text><text xml:space="preserve" font-family="Helvetica-Light,Helvetica" font-size="28.0" fill="#EEEEEE" transform="matrix(1.00, 0.00, -0.00, -1.00, 125.7, 531.4)">n</text><text xml:space="preserve" font-family="Helvetica-Light,Helvetica" font-size="28.0" fill="#EEEEEE" transform="matrix(1.00, 0.00, -0.00, -1.00, 141.2, 531.4)">t</text><text xml:space="preserve" font-family="Helvetica-Light,Helvetica" font-size="28.0" fill="#EEEEEE" transform="matrix(1.00, 0.00, -0.00, -1.00, 149.0, 531.4)">r</text><text xml:space="preserve" font-family="Helvetica-Light,Helvetica" font-size="28.0" fill="#EEEEEE" transform="matrix(1.00, 0.00, -0.00, -1.00, 157.8, 531.4)">o</text><text xml:space="preserve" font-family="Helvetica-Light,Helvetica" font-size="28.0" fill="#EEEEEE" transform="matrix(1.00, 0.00, -0.00, -1.00, 173.4, 531.4)"> </text><text xml:space="preserve" font-family="Helvetica-Light,Helvetica" font-size="36.0" fill="#EEEEEE" transform="matrix(1.00, 0.00, -0.00, -1.00, 79.0, 461.3)">2</text><text xml:space="preserve" font-family="Helvetica-Light,Helvetica" font-size="36.0" fill="#EEEEEE" transform="matrix(1.00, 0.00, -0.00, -1.00, 99.0, 461.3)">.</text><text xml:space="preserve" font-family="Helvetica-Bold,Helvetica" font-weight="bold" font-size="36.0" fill="#EEEEEE" transform="matrix(1.00, 0.00, -0.00, -1.00, 129.0, 461.3)">S</text><text xml:space="preserve" font-family="Helvetica-Bold,Helvetica" font-weight="bold" font-size="36.0" fill="#EEEEEE" transform="matrix(1.00, 0.00, -0.00, -1.00, 153.0, 461.3)">c</text><text xml:space="preserve" font-family="Helvetica-Bold,Helvetica" font-weight="bold" font-size="36.0" fill="#EEEEEE" transform="matrix(1.00, 0.00, -0.00, -1.00, 173.0, 461.3)">o</text><text xml:space="preserve" font-family="Helvetica-Bold,Helvetica" font-weight="bold" font-size="36.0" fill="#EEEEEE" transform="matrix(1.00, 0.00, -0.00, -1.00, 195.0, 461.3)">p</text><text xml:space="preserve" font-family="Helvetica-Bold,Helvetica" font-weight="bold" font-size="36.0" fill="#EEEEEE" transform="matrix(1.00, 0.00, -0.00, -1.00, 217.0, 461.3)">e</text><text xml:space="preserve" font-family="Helvetica-Bold,Helvetica" font-weight="bold" font-size="36.0" fill="#EEEEEE" transform="matrix(1.00, 0.00, -0.00, -1.00, 237.0, 461.3)">s</text><text xml:space="preserve" font-family="Helvetica-Light,Helvetica" font-size="36.0" fill="#EEEEEE" transform="matrix(1.00, 0.00, -0.00, -1.00, 257.1, 461.3)">:</text><text xml:space="preserve" font-family="Helvetica-Light,Helvetica" font-size="36.0" fill="#EEEEEE" transform="matrix(1.00, 0.00, -0.00, -1.00, 267.1, 461.3)"> </text><text xml:space="preserve" font-family="Helvetica-Light,Helvetica" font-size="36.0" fill="#EEEEEE" transform="matrix(1.00, 0.00, -0.00, -1.00, 277.1, 461.3)">T</text><text xml:space="preserve" font-family="Helvetica-Light,Helvetica" font-size="36.0" fill="#EEEEEE" transform="matrix(1.00, 0.00, -0.00, -1.00, 297.1, 461.3)">h</text><text xml:space="preserve" font-family="Helvetica-Light,Helvetica" font-size="36.0" fill="#EEEEEE" transform="matrix(1.00, 0.00, -0.00, -1.00, 317.1, 461.3)">e</text><text xml:space="preserve" font-family="Helvetica-Light,Helvetica" font-size="36.0" fill="#EEEEEE" transform="matrix(1.00, 0.00, -0.00, -1.00, 337.1, 461.3)"> </text><text xml:space="preserve" font-family="Helvetica-Light,Helvetica" font-size="36.0" fill="#EEEEEE" transform="matrix(1.00, 0.00, -0.00, -1.00, 347.1, 461.3)">G</text><text xml:space="preserve" font-family="Helvetica-Light,Helvetica" font-size="36.0" fill="#EEEEEE" transform="matrix(1.00, 0.00, -0.00, -1.00, 375.1, 461.3)">o</text><text xml:space="preserve" font-family="Helvetica-Light,Helvetica" font-size="36.0" fill="#EEEEEE" transform="matrix(1.00, 0.00, -0.00, -1.00, 395.2, 461.3)">o</text><text xml:space="preserve" font-family="Helvetica-Light,Helvetica" font-size="36.0" fill="#EEEEEE" transform="matrix(1.00, 0.00, -0.00, -1.00, 415.2, 461.3)">d</text><text xml:space="preserve" font-family="Helvetica-Light,Helvetica" font-size="36.0" fill="#EEEEEE" transform="matrix(1.00, 0.00, -0.00, -1.00, 437.2, 461.3)"> </text><text xml:space="preserve" font-family="Helvetica-Light,Helvetica" font-size="36.0" fill="#EEEEEE" transform="matrix(1.00, 0.00, -0.00, -1.00, 79.0, 389.3)">3</text><text xml:space="preserve" font-family="Helvetica-Light,Helvetica" font-size="36.0" fill="#EEEEEE" transform="matrix(1.00, 0.00, -0.00, -1.00, 99.0, 389.3)">.</text><text xml:space="preserve" font-family="Helvetica-Bold,Helvetica" font-weight="bold" font-size="36.0" fill="#EEEEEE" transform="matrix(1.00, 0.00, -0.00, -1.00, 129.0, 389.3)">D</text><text xml:space="preserve" font-family="Helvetica-Bold,Helvetica" font-weight="bold" font-size="36.0" fill="#EEEEEE" transform="matrix(1.00, 0.00, -0.00, -1.00, 155.0, 389.3)">e</text><text xml:space="preserve" font-family="Helvetica-Bold,Helvetica" font-weight="bold" font-size="36.0" fill="#EEEEEE" transform="matrix(1.00, 0.00, -0.00, -1.00, 175.0, 389.3)">p</text><text xml:space="preserve" font-family="Helvetica-Bold,Helvetica" font-weight="bold" font-size="36.0" fill="#EEEEEE" transform="matrix(1.00, 0.00, -0.00, -1.00, 197.0, 389.3)">e</text><text xml:space="preserve" font-family="Helvetica-Bold,Helvetica" font-weight="bold" font-size="36.0" fill="#EEEEEE" transform="matrix(1.00, 0.00, -0.00, -1.00, 217.0, 389.3)">n</text><text xml:space="preserve" font-family="Helvetica-Bold,Helvetica" font-weight="bold" font-size="36.0" fill="#EEEEEE" transform="matrix(1.00, 0.00, -0.00, -1.00, 239.0, 389.3)">d</text><text xml:space="preserve" font-family="Helvetica-Bold,Helvetica" font-weight="bold" font-size="36.0" fill="#EEEEEE" transform="matrix(1.00, 0.00, -0.00, -1.00, 261.0, 389.3)">e</text><text xml:space="preserve" font-family="Helvetica-Bold,Helvetica" font-weight="bold" font-size="36.0" fill="#EEEEEE" transform="matrix(1.00, 0.00, -0.00, -1.00, 281.0, 389.3)">n</text><text xml:space="preserve" font-family="Helvetica-Bold,Helvetica" font-weight="bold" font-size="36.0" fill="#EEEEEE" transform="matrix(1.00, 0.00, -0.00, -1.00, 303.0, 389.3)">c</text><text xml:space="preserve" font-family="Helvetica-Bold,Helvetica" font-weight="bold" font-size="36.0" fill="#EEEEEE" transform="matrix(1.00, 0.00, -0.00, -1.00, 323.1, 389.3)">y</text><text xml:space="preserve" font-family="Helvetica-Bold,Helvetica" font-weight="bold" font-size="36.0" fill="#EEEEEE" transform="matrix(1.00, 0.00, -0.00, -1.00, 343.1, 389.3)"> </text><text xml:space="preserve" font-family="Helvetica-Bold,Helvetica" font-weight="bold" font-size="36.0" fill="#EEEEEE" transform="matrix(1.00, 0.00, -0.00, -1.00, 353.1, 389.3)">I</text><text xml:space="preserve" font-family="Helvetica-Bold,Helvetica" font-weight="bold" font-size="36.0" fill="#EEEEEE" transform="matrix(1.00, 0.00, -0.00, -1.00, 363.1, 389.3)">n</text><text xml:space="preserve" font-family="Helvetica-Bold,Helvetica" font-weight="bold" font-size="36.0" fill="#EEEEEE" transform="matrix(1.00, 0.00, -0.00, -1.00, 385.1, 389.3)">j</text><text xml:space="preserve" font-family="Helvetica-Bold,Helvetica" font-weight="bold" font-size="36.0" fill="#EEEEEE" transform="matrix(1.00, 0.00, -0.00, -1.00, 395.0, 389.3)">e</text><text xml:space="preserve" font-family="Helvetica-Bold,Helvetica" font-weight="bold" font-size="36.0" fill="#EEEEEE" transform="matrix(1.00, 0.00, -0.00, -1.00, 415.1, 389.3)">c</text><text xml:space="preserve" font-family="Helvetica-Bold,Helvetica" font-weight="bold" font-size="36.0" fill="#EEEEEE" transform="matrix(1.00, 0.00, -0.00, -1.00, 435.1, 389.3)">t</text><text xml:space="preserve" font-family="Helvetica-Bold,Helvetica" font-weight="bold" font-size="36.0" fill="#EEEEEE" transform="matrix(1.00, 0.00, -0.00, -1.00, 447.1, 389.3)">i</text><text xml:space="preserve" font-family="Helvetica-Bold,Helvetica" font-weight="bold" font-size="36.0" fill="#EEEEEE" transform="matrix(1.00, 0.00, -0.00, -1.00, 457.1, 389.3)">o</text><text xml:space="preserve" font-family="Helvetica-Bold,Helvetica" font-weight="bold" font-size="36.0" fill="#EEEEEE" transform="matrix(1.00, 0.00, -0.00, -1.00, 479.1, 389.3)">n</text><text xml:space="preserve" font-family="Helvetica-Light,Helvetica" font-size="36.0" fill="#EEEEEE" transform="matrix(1.00, 0.00, -0.00, -1.00, 501.1, 389.3)">:</text><text xml:space="preserve" font-family="Helvetica-Light,Helvetica" font-size="36.0" fill="#EEEEEE" transform="matrix(1.00, 0.00, -0.00, -1.00, 511.1, 389.3)"> </text><text xml:space="preserve" font-family="Helvetica-Light,Helvetica" font-size="36.0" fill="#EEEEEE" transform="matrix(1.00, 0.00, -0.00, -1.00, 521.1, 389.3)">T</text><text xml:space="preserve" font-family="Helvetica-Light,Helvetica" font-size="36.0" fill="#EEEEEE" transform="matrix(1.00, 0.00, -0.00, -1.00, 541.1, 389.3)">h</text><text xml:space="preserve" font-family="Helvetica-Light,Helvetica" font-size="36.0" fill="#EEEEEE" transform="matrix(1.00, 0.00, -0.00, -1.00, 561.1, 389.3)">e</text><text xml:space="preserve" font-family="Helvetica-Light,Helvetica" font-size="36.0" fill="#EEEEEE" transform="matrix(1.00, 0.00, -0.00, -1.00, 581.1, 389.3)"> </text><text xml:space="preserve" font-family="Helvetica-Light,Helvetica" font-size="36.0" fill="#EEEEEE" transform="matrix(1.00, 0.00, -0.00, -1.00, 591.1, 389.3)">B</text><text xml:space="preserve" font-family="Helvetica-Light,Helvetica" font-size="36.0" fill="#EEEEEE" transform="matrix(1.00, 0.00, -0.00, -1.00, 615.2, 389.3)">a</text><text xml:space="preserve" font-family="Helvetica-Light,Helvetica" font-size="36.0" fill="#EEEEEE" transform="matrix(1.00, 0.00, -0.00, -1.00, 635.2, 389.3)">d</text><text xml:space="preserve" font-family="Helvetica-Light,Helvetica" font-size="36.0" fill="#EEEEEE" transform="matrix(1.00, 0.00, -0.00, -1.00, 657.2, 389.3)">a</text><text xml:space="preserve" font-family="Helvetica-Light,Helvetica" font-size="36.0" fill="#EEEEEE" transform="matrix(1.00, 0.00, -0.00, -1.00, 677.2, 389.3)">s</text><text xml:space="preserve" font-family="Helvetica-Light,Helvetica" font-size="36.0" fill="#EEEEEE" transform="matrix(1.00, 0.00, -0.00, -1.00, 695.2, 389.3)">s</text><text xml:space="preserve" font-family="Helvetica-Light,Helvetica" font-size="36.0" fill="#EEEEEE" transform="matrix(1.00, 0.00, -0.00, -1.00, 713.2, 389.3)"> </text><text xml:space="preserve" font-family="Helvetica-Light,Helvetica" font-size="36.0" fill="#EEEEEE" transform="matrix(1.00, 0.00, -0.00, -1.00, 79.0, 317.3)">4</text><text xml:space="preserve" font-family="Helvetica-Light,Helvetica" font-size="36.0" fill="#EEEEEE" transform="matrix(1.00, 0.00, -0.00, -1.00, 99.0, 317.3)">.</text><text xml:space="preserve" font-family="Helvetica-Bold,Helvetica" font-weight="bold" font-size="36.0" fill="#EEEEEE" transform="matrix(1.00, 0.00, -0.00, -1.00, 129.0, 317.3)">D</text><text xml:space="preserve" font-family="Helvetica-Bold,Helvetica" font-weight="bold" font-size="36.0" fill="#EEEEEE" transform="matrix(1.00, 0.00, -0.00, -1.00, 155.0, 317.3)">i</text><text xml:space="preserve" font-family="Helvetica-Bold,Helvetica" font-weight="bold" font-size="36.0" fill="#EEEEEE" transform="matrix(1.00, 0.00, -0.00, -1.00, 165.0, 317.3)">r</text><text xml:space="preserve" font-family="Helvetica-Bold,Helvetica" font-weight="bold" font-size="36.0" fill="#EEEEEE" transform="matrix(1.00, 0.00, -0.00, -1.00, 179.0, 317.3)">e</text><text xml:space="preserve" font-family="Helvetica-Bold,Helvetica" font-weight="bold" font-size="36.0" fill="#EEEEEE" transform="matrix(1.00, 0.00, -0.00, -1.00, 199.0, 317.3)">c</text><text xml:space="preserve" font-family="Helvetica-Bold,Helvetica" font-weight="bold" font-size="36.0" fill="#EEEEEE" transform="matrix(1.00, 0.00, -0.00, -1.00, 219.1, 317.3)">t</text><text xml:space="preserve" font-family="Helvetica-Bold,Helvetica" font-weight="bold" font-size="36.0" fill="#EEEEEE" transform="matrix(1.00, 0.00, -0.00, -1.00, 231.1, 317.3)">i</text><text xml:space="preserve" font-family="Helvetica-Bold,Helvetica" font-weight="bold" font-size="36.0" fill="#EEEEEE" transform="matrix(1.00, 0.00, -0.00, -1.00, 241.1, 317.3)">v</text><text xml:space="preserve" font-family="Helvetica-Bold,Helvetica" font-weight="bold" font-size="36.0" fill="#EEEEEE" transform="matrix(1.00, 0.00, -0.00, -1.00, 261.1, 317.3)">e</text><text xml:space="preserve" font-family="Helvetica-Bold,Helvetica" font-weight="bold" font-size="36.0" fill="#EEEEEE" transform="matrix(1.00, 0.00, -0.00, -1.00, 281.1, 317.3)">s</text><text xml:space="preserve" font-family="Helvetica-Light,Helvetica" font-size="36.0" fill="#EEEEEE" transform="matrix(1.00, 0.00, -0.00, -1.00, 301.1, 317.3)">:</text><text xml:space="preserve" font-family="Helvetica-Light,Helvetica" font-size="36.0" fill="#EEEEEE" transform="matrix(1.00, 0.00, -0.00, -1.00, 311.1, 317.3)"> </text><text xml:space="preserve" font-family="Helvetica-Light,Helvetica" font-size="36.0" fill="#EEEEEE" transform="matrix(1.00, 0.00, -0.00, -1.00, 321.1, 317.3)">T</text><text xml:space="preserve" font-family="Helvetica-Light,Helvetica" font-size="36.0" fill="#EEEEEE" transform="matrix(1.00, 0.00, -0.00, -1.00, 341.1, 317.3)">h</text><text xml:space="preserve" font-family="Helvetica-Light,Helvetica" font-size="36.0" fill="#EEEEEE" transform="matrix(1.00, 0.00, -0.00, -1.00, 361.2, 317.3)">e</text><text xml:space="preserve" font-family="Helvetica-Light,Helvetica" font-size="36.0" fill="#EEEEEE" transform="matrix(1.00, 0.00, -0.00, -1.00, 381.2, 317.3)"> </text><text xml:space="preserve" font-family="Helvetica-Light,Helvetica" font-size="36.0" fill="#EEEEEE" transform="matrix(1.00, 0.00, -0.00, -1.00, 391.2, 317.3)">N</text><text xml:space="preserve" font-family="Helvetica-Light,Helvetica" font-size="36.0" fill="#EEEEEE" transform="matrix(1.00, 0.00, -0.00, -1.00, 417.2, 317.3)">e</text><text xml:space="preserve" font-family="Helvetica-Light,Helvetica" font-size="36.0" fill="#EEEEEE" transform="matrix(1.00, 0.00, -0.00, -1.00, 437.2, 317.3)">c</text><text xml:space="preserve" font-family="Helvetica-Light,Helvetica" font-size="36.0" fill="#EEEEEE" transform="matrix(1.00, 0.00, -0.00, -1.00, 457.2, 317.3)">e</text><text xml:space="preserve" font-family="Helvetica-Light,Helvetica" font-size="36.0" fill="#EEEEEE" transform="matrix(1.00, 0.00, -0.00, -1.00, 477.2, 317.3)">s</text><text xml:space="preserve" font-family="Helvetica-Light,Helvetica" font-size="36.0" fill="#EEEEEE" transform="matrix(1.00, 0.00, -0.00, -1.00, 495.2, 317.3)">s</text><text xml:space="preserve" font-family="Helvetica-Light,Helvetica" font-size="36.0" fill="#EEEEEE" transform="matrix(1.00, 0.00, -0.00, -1.00, 513.2, 317.3)">a</text><text xml:space="preserve" font-family="Helvetica-Light,Helvetica" font-size="36.0" fill="#EEEEEE" transform="matrix(1.00, 0.00, -0.00, -1.00, 533.2, 317.3)">r</text><text xml:space="preserve" font-family="Helvetica-Light,Helvetica" font-size="36.0" fill="#EEEEEE" transform="matrix(1.00, 0.00, -0.00, -1.00, 545.9, 317.3)">y</text><text xml:space="preserve" font-family="Helvetica-Light,Helvetica" font-size="36.0" fill="#EEEEEE" transform="matrix(1.00, 0.00, -0.00, -1.00, 563.9, 317.3)">?</text><text xml:space="preserve" font-family="Helvetica-Light,Helvetica" font-size="36.0" fill="#EEEEEE" transform="matrix(1.00, 0.00, -0.00, -1.00, 581.9, 317.3)"> </text><text xml:space="preserve" font-family="Helvetica-Light,Helvetica" font-size="28.0" fill="#EEEEEE" transform="matrix(1.00, 0.00, -0.00, -1.00, 79.0, 249.4)">5</text><text xml:space="preserve" font-family="Helvetica-Light,Helvetica" font-size="28.0" fill="#EEEEEE" transform="matrix(1.00, 0.00, -0.00, -1.00, 94.6, 249.4)">.</text><text xml:space="preserve" font-family="Helvetica-Light,Helvetica" font-size="28.0" fill="#EEEEEE" transform="matrix(1.00, 0.00, -0.00, -1.00, 117.9, 249.4)">Q</text><text xml:space="preserve" font-family="Helvetica-Light,Helvetica" font-size="28.0" fill="#EEEEEE" transform="matrix(1.00, 0.00, -0.00, -1.00, 139.7, 249.4)">&amp;</text><text xml:space="preserve" font-family="Helvetica-Light,Helvetica" font-size="28.0" fill="#EEEEEE" transform="matrix(1.00, 0.00, -0.00, -1.00, 158.3, 249.4)">A</text><text xml:space="preserve" font-family="Helvetica-Light,Helvetica" font-size="28.0" fill="#EEEEEE" transform="matrix(1.00, 0.00, -0.00, -1.00, 177.0, 249.4)">?</text><image xlink:href="../../426BA590-CCE0-4EA4-B2C0-B78BA052DCF8/assets/D431BA34F65B5804BF72B042E745F8BE.png" width="394.00" height="415.00" transform="matrix(0.73, 0.00, -0.00, -0.73, 727.8, 546.2)"></image></g></svg>